<?xml version="1.0" encoding="UTF-8"?>
<!DOCTYPE svg PUBLIC "-//W3C//DTD SVG 1.1//EN" "http://www.w3.org/Graphics/SVG/1.1/DTD/svg11.dtd">
<svg xmlns="http://www.w3.org/2000/svg" version="1.1" width="640px" height="640px" style="shape-rendering:geometricPrecision; text-rendering:geometricPrecision; image-rendering:optimizeQuality; fill-rule:evenodd; clip-rule:evenodd" xmlns:xlink="http://www.w3.org/1999/xlink">
<g><path style="opacity:0.985" fill="#fefefd" d="M 393.5,168.5 C 392.909,169.151 392.243,169.818 391.5,170.5C 399.629,174.978 407.129,180.311 414,186.5C 414.043,190.731 416.21,192.564 420.5,192C 424.838,195.307 428.504,199.307 431.5,204C 428.667,205.833 428.833,207.333 432,208.5C 433.533,208.056 435.033,207.723 436.5,207.5C 437.466,209.396 437.799,211.396 437.5,213.5C 438.552,213.351 439.552,213.517 440.5,214C 448.652,224.783 454.985,236.449 459.5,249C 459.055,250.447 458.388,251.78 457.5,253C 458.732,256.39 459.566,256.223 460,252.5C 461.575,254.075 462.742,255.908 463.5,258C 465.719,268.095 467.552,278.261 469,288.5C 469.278,287.584 469.778,286.918 470.5,286.5C 471.495,299.234 471.162,311.901 469.5,324.5C 468.732,323.737 468.232,322.737 468,321.5C 465.797,332.767 462.797,343.767 459,354.5C 458.71,352.956 458.044,351.623 457,350.5C 454.739,357.819 452.906,365.152 451.5,372.5C 448.079,372.238 447.079,373.572 448.5,376.5C 447.333,378.833 446.167,381.167 445,383.5C 441.229,385.77 439.396,389.104 439.5,393.5C 401.387,439.031 352.72,457.531 293.5,449C 240.453,437.566 202.953,407.066 181,357.5C 159.343,294.536 171.176,239.036 216.5,191C 231.187,178.985 247.187,168.985 264.5,161C 301.388,147.409 338.388,147.076 375.5,160C 381.678,162.59 387.678,165.424 393.5,168.5 Z"/></g>
<g><path style="opacity:1" fill="#e08541" d="M 325.5,207.5 C 325.833,207.5 326.167,207.5 326.5,207.5C 326.5,208.167 326.5,208.833 326.5,209.5C 324.958,208.699 323.292,208.366 321.5,208.5C 321.5,210.5 321.5,212.5 321.5,214.5C 320.209,214.263 319.209,214.596 318.5,215.5C 317.833,215.5 317.5,215.833 317.5,216.5C 314.968,218.419 312.968,220.753 311.5,223.5C 311.5,222.167 311.5,220.833 311.5,219.5C 313.262,218.738 314.262,217.404 314.5,215.5C 315.167,215.167 315.833,214.833 316.5,214.5C 319.518,213.145 320.851,210.812 320.5,207.5C 322.167,207.5 323.833,207.5 325.5,207.5 Z"/></g>
<g><path style="opacity:1" fill="#fdecd1" d="M 322.5,202.5 C 321.833,203.833 321.167,205.167 320.5,206.5C 319.833,206.5 319.5,206.833 319.5,207.5C 317.05,209.629 315.383,212.296 314.5,215.5C 312.738,216.262 311.738,217.596 311.5,219.5C 308.799,222.235 307.132,225.569 306.5,229.5C 304.592,230.486 303.592,232.152 303.5,234.5C 302.836,239.473 302.503,244.473 302.5,249.5C 301.243,244.297 301.243,238.964 302.5,233.5C 307.108,222.956 312.775,212.956 319.5,203.5C 320.325,202.614 321.325,202.281 322.5,202.5 Z"/></g>
<g><path style="opacity:1" fill="#ed7f36" d="M 317.5,216.5 C 318.873,219.343 319.873,222.343 320.5,225.5C 318.857,228.495 316.523,229.161 313.5,227.5C 312.186,228.313 311.019,229.313 310,230.5C 308.023,238.03 307.19,245.697 307.5,253.5C 306.474,250.543 305.807,247.376 305.5,244C 306.975,239.669 307.975,235.169 308.5,230.5C 308.5,230.167 308.5,229.833 308.5,229.5C 308.386,226.784 309.386,224.784 311.5,223.5C 312.968,220.753 314.968,218.419 317.5,216.5 Z"/></g>
<g><path style="opacity:1" fill="#d28b50" d="M 326.5,207.5 C 331.274,213.288 335.274,219.622 338.5,226.5C 338.427,228.027 339.094,229.027 340.5,229.5C 340.5,230.833 340.5,232.167 340.5,233.5C 338.495,230.163 336.495,226.83 334.5,223.5C 333.92,221.251 332.587,219.585 330.5,218.5C 329.424,215.352 328.091,212.352 326.5,209.5C 326.5,208.833 326.5,208.167 326.5,207.5 Z"/></g>
<g><path style="opacity:1" fill="#fdf1d7" d="M 325.5,204.5 C 326.822,204.33 327.989,204.663 329,205.5C 330.143,209.788 332.31,213.455 335.5,216.5C 337.528,217.549 339.528,218.549 341.5,219.5C 341.455,225.36 342.455,231.027 344.5,236.5C 344.167,236.5 343.833,236.5 343.5,236.5C 343.5,235.833 343.167,235.5 342.5,235.5C 342.741,233.102 342.074,231.102 340.5,229.5C 340.573,227.973 339.906,226.973 338.5,226.5C 335.274,219.622 331.274,213.288 326.5,207.5C 326.443,206.391 326.11,205.391 325.5,204.5 Z"/></g>
<g><path style="opacity:1" fill="#f07e2e" d="M 318.5,215.5 C 319.688,216.684 320.855,216.684 322,215.5C 323.714,218.45 323.714,221.45 322,224.5C 321.275,236.522 321.442,248.522 322.5,260.5C 321.07,260.421 319.736,260.754 318.5,261.5C 316.808,263.359 315.308,265.359 314,267.5C 312.473,265.779 311.473,263.779 311,261.5C 309.961,260.29 308.794,259.29 307.5,258.5C 307.5,256.833 307.5,255.167 307.5,253.5C 307.19,245.697 308.023,238.03 310,230.5C 311.019,229.313 312.186,228.313 313.5,227.5C 316.523,229.161 318.857,228.495 320.5,225.5C 319.873,222.343 318.873,219.343 317.5,216.5C 317.5,215.833 317.833,215.5 318.5,215.5 Z"/></g>
<g><path style="opacity:1" fill="#ee7c2e" d="M 330.5,218.5 C 332.587,219.585 333.92,221.251 334.5,223.5C 335.301,227.979 336.634,232.312 338.5,236.5C 337.5,236.5 336.5,236.5 335.5,236.5C 335.5,237.5 335.5,238.5 335.5,239.5C 339.868,237.861 341.534,239.527 340.5,244.5C 339.718,249.448 338.051,253.948 335.5,258C 336.159,260.462 336.493,262.962 336.5,265.5C 335.5,265.5 334.5,265.5 333.5,265.5C 332.25,265.423 331.417,264.756 331,263.5C 329.456,265.369 327.956,267.203 326.5,269C 327.833,270.333 329.167,271.667 330.5,273C 329.006,275.639 328.339,278.472 328.5,281.5C 327.5,281.5 326.5,281.5 325.5,281.5C 324.905,262.276 324.238,243.11 323.5,224C 324.624,223.751 325.624,223.251 326.5,222.5C 325.585,219.913 324.585,217.413 323.5,215C 323.833,214.167 324.167,213.333 324.5,212.5C 326.209,214.876 328.209,216.876 330.5,218.5 Z"/></g>
<g><path style="opacity:1" fill="#fcfdf5" d="M 341.5,219.5 C 339.528,218.549 337.528,217.549 335.5,216.5C 332.31,213.455 330.143,209.788 329,205.5C 327.989,204.663 326.822,204.33 325.5,204.5C 325.027,203.094 324.027,202.427 322.5,202.5C 321.325,202.281 320.325,202.614 319.5,203.5C 312.775,212.956 307.108,222.956 302.5,233.5C 301.85,233.804 301.183,234.137 300.5,234.5C 299.505,239.792 299.172,245.125 299.5,250.5C 295.674,250.203 292.674,248.37 290.5,245C 288.5,244.667 286.5,244.333 284.5,244C 283.944,243.617 283.611,243.117 283.5,242.5C 286.187,242.664 288.854,242.497 291.5,242C 292.988,240.283 294.821,239.116 297,238.5C 297.991,236.553 298.325,234.553 298,232.5C 296.719,233.647 296.386,233.313 297,231.5C 299.328,228.43 301.995,226.43 305,225.5C 306.006,221.827 307.672,218.493 310,215.5C 310.667,214.167 310.667,212.833 310,211.5C 308.853,212.458 307.853,212.125 307,210.5C 306.517,209.552 306.351,208.552 306.5,207.5C 309.5,207.5 312.5,207.5 315.5,207.5C 316.74,202.584 317.574,197.584 318,192.5C 318.056,195.78 318.889,198.78 320.5,201.5C 323.474,200.226 324.141,198.226 322.5,195.5C 324.495,190.268 326.161,190.601 327.5,196.5C 326.835,198.101 326.501,199.601 326.5,201C 329.842,205.311 333.009,209.811 336,214.5C 338.328,215.664 340.162,217.33 341.5,219.5 Z"/></g>
<g><path style="opacity:1" fill="#e3ab7c" d="M 314.5,215.5 C 314.262,217.404 313.262,218.738 311.5,219.5C 311.738,217.596 312.738,216.262 314.5,215.5 Z"/></g>
<g><path style="opacity:1" fill="#e7b98d" d="M 319.5,207.5 C 318.758,209.98 317.758,212.313 316.5,214.5C 315.833,214.833 315.167,215.167 314.5,215.5C 315.383,212.296 317.05,209.629 319.5,207.5 Z"/></g>
<g><path style="opacity:1" fill="#d38c53" d="M 320.5,206.5 C 322.415,206.216 324.081,206.549 325.5,207.5C 323.833,207.5 322.167,207.5 320.5,207.5C 320.851,210.812 319.518,213.145 316.5,214.5C 317.758,212.313 318.758,209.98 319.5,207.5C 319.5,206.833 319.833,206.5 320.5,206.5 Z"/></g>
<g><path style="opacity:1" fill="#d09e77" d="M 322.5,202.5 C 324.027,202.427 325.027,203.094 325.5,204.5C 326.11,205.391 326.443,206.391 326.5,207.5C 326.167,207.5 325.833,207.5 325.5,207.5C 324.081,206.549 322.415,206.216 320.5,206.5C 321.167,205.167 321.833,203.833 322.5,202.5 Z"/></g>
<g><path style="opacity:1" fill="#d79a68" d="M 311.5,219.5 C 311.5,220.833 311.5,222.167 311.5,223.5C 309.386,224.784 308.386,226.784 308.5,229.5C 307.833,229.5 307.167,229.5 306.5,229.5C 307.132,225.569 308.799,222.235 311.5,219.5 Z"/></g>
<g><path style="opacity:1" fill="#ddb48c" d="M 338.5,226.5 C 339.906,226.973 340.573,227.973 340.5,229.5C 339.094,229.027 338.427,228.027 338.5,226.5 Z"/></g>
<g><path style="opacity:1" fill="#fdfcf2" d="M 272.5,239.5 C 270.167,239.5 267.833,239.5 265.5,239.5C 263.833,239.5 262.167,239.5 260.5,239.5C 258.052,238.527 255.385,238.194 252.5,238.5C 252.437,244.264 253.103,249.93 254.5,255.5C 252.603,253.731 251.436,251.398 251,248.5C 250.825,244.789 250.325,241.122 249.5,237.5C 248.692,237.192 248.025,236.692 247.5,236C 249.384,235.784 251.051,235.117 252.5,234C 250.687,234.046 249.021,233.88 247.5,233.5C 252.526,232.954 257.526,232.621 262.5,232.5C 265.074,236.098 268.407,238.431 272.5,239.5 Z"/></g>
<g><path style="opacity:1" fill="#eab087" d="M 306.5,229.5 C 306.25,231.674 305.25,233.341 303.5,234.5C 303.592,232.152 304.592,230.486 306.5,229.5 Z"/></g>
<g><path style="opacity:1" fill="#d7a878" d="M 340.5,229.5 C 342.074,231.102 342.741,233.102 342.5,235.5C 341.833,234.833 341.167,234.167 340.5,233.5C 340.5,232.167 340.5,230.833 340.5,229.5 Z"/></g>
<g><path style="opacity:1" fill="#e68035" d="M 334.5,223.5 C 336.495,226.83 338.495,230.163 340.5,233.5C 341.275,238.797 341.608,244.13 341.5,249.5C 340.735,252.096 340.401,254.763 340.5,257.5C 340.5,257.833 340.5,258.167 340.5,258.5C 338.076,262.515 336.41,266.849 335.5,271.5C 334.962,273.117 334.629,274.784 334.5,276.5C 333.761,276.369 333.094,276.536 332.5,277C 331.915,278.302 331.249,279.469 330.5,280.5C 330.773,275.267 331.773,270.267 333.5,265.5C 334.5,265.5 335.5,265.5 336.5,265.5C 336.493,262.962 336.159,260.462 335.5,258C 338.051,253.948 339.718,249.448 340.5,244.5C 341.534,239.527 339.868,237.861 335.5,239.5C 335.5,238.5 335.5,237.5 335.5,236.5C 336.5,236.5 337.5,236.5 338.5,236.5C 336.634,232.312 335.301,227.979 334.5,223.5 Z"/></g>
<g><path style="opacity:1" fill="#f4d6b4" d="M 383.5,239.5 C 386.625,238.521 389.958,238.187 393.5,238.5C 393.192,247.098 391.192,255.098 387.5,262.5C 389.42,255.237 391.086,247.904 392.5,240.5C 389.572,239.516 386.572,239.183 383.5,239.5 Z"/></g>
<g><path style="opacity:1" fill="#c7996b" d="M 260.5,239.5 C 260.5,239.833 260.5,240.167 260.5,240.5C 258.833,240.5 257.167,240.5 255.5,240.5C 255.5,242.833 255.5,245.167 255.5,247.5C 254.734,245.316 254.067,242.982 253.5,240.5C 255.743,239.526 258.076,239.192 260.5,239.5 Z"/></g>
<g><path style="opacity:1" fill="#cc8f5b" d="M 262.5,240.5 C 267.518,240.991 272.184,242.324 276.5,244.5C 272.837,244.048 269.17,243.548 265.5,243C 264.058,242.623 263.058,241.79 262.5,240.5 Z"/></g>
<g><path style="opacity:1" fill="#fbdeba" d="M 260.5,240.5 C 260.5,240.167 260.5,239.833 260.5,239.5C 262.167,239.5 263.833,239.5 265.5,239.5C 271.122,240.666 276.789,242.166 282.5,244C 283.056,244.383 283.389,244.883 283.5,245.5C 282.167,245.167 280.833,244.833 279.5,244.5C 278.5,244.5 277.5,244.5 276.5,244.5C 272.184,242.324 267.518,240.991 262.5,240.5C 261.833,240.5 261.167,240.5 260.5,240.5 Z"/></g>
<g><path style="opacity:1" fill="#d28b51" d="M 306.5,229.5 C 307.167,229.5 307.833,229.5 308.5,229.5C 308.5,229.833 308.5,230.167 308.5,230.5C 307.356,232.1 306.189,233.767 305,235.5C 304.5,242.158 304.334,248.825 304.5,255.5C 303.833,253.833 303.167,252.167 302.5,250.5C 302.5,250.167 302.5,249.833 302.5,249.5C 302.503,244.473 302.836,239.473 303.5,234.5C 305.25,233.341 306.25,231.674 306.5,229.5 Z"/></g>
<g><path style="opacity:1" fill="#d09463" d="M 381.5,240.5 C 380.167,241.5 378.833,242.5 377.5,243.5C 374.193,244.051 370.86,244.384 367.5,244.5C 371.94,242.748 376.607,241.415 381.5,240.5 Z"/></g>
<g><path style="opacity:1" fill="#d98644" d="M 381.5,240.5 C 382.167,240.5 382.833,240.5 383.5,240.5C 385.5,240.5 387.5,240.5 389.5,240.5C 389.81,243.713 389.477,246.713 388.5,249.5C 388.5,247.5 388.5,245.5 388.5,243.5C 384.833,243.5 381.167,243.5 377.5,243.5C 378.833,242.5 380.167,241.5 381.5,240.5 Z"/></g>
<g><path style="opacity:1" fill="#db8746" d="M 260.5,240.5 C 261.167,240.5 261.833,240.5 262.5,240.5C 263.058,241.79 264.058,242.623 265.5,243C 269.17,243.548 272.837,244.048 276.5,244.5C 277.5,244.5 278.5,244.5 279.5,244.5C 279.5,245.167 279.5,245.833 279.5,246.5C 273.014,245.57 266.68,244.236 260.5,242.5C 255.532,244.116 255.198,246.45 259.5,249.5C 260.118,256.762 261.451,263.762 263.5,270.5C 262.935,268.58 261.935,266.913 260.5,265.5C 259.885,260.474 259.051,255.474 258,250.5C 257.617,249.944 257.117,249.611 256.5,249.5C 255.662,249.158 255.328,248.492 255.5,247.5C 255.5,245.167 255.5,242.833 255.5,240.5C 257.167,240.5 258.833,240.5 260.5,240.5 Z"/></g>
<g><path style="opacity:1" fill="#e2813a" d="M 377.5,243.5 C 381.167,243.5 384.833,243.5 388.5,243.5C 388.5,245.5 388.5,247.5 388.5,249.5C 387.632,253.314 386.632,256.981 385.5,260.5C 385.956,255.135 386.623,249.801 387.5,244.5C 380.814,244.527 374.148,244.861 367.5,245.5C 367.5,245.167 367.5,244.833 367.5,244.5C 370.86,244.384 374.193,244.051 377.5,243.5 Z"/></g>
<g><path style="opacity:1" fill="#fce9cd" d="M 260.5,239.5 C 258.076,239.192 255.743,239.526 253.5,240.5C 254.067,242.982 254.734,245.316 255.5,247.5C 255.328,248.492 255.662,249.158 256.5,249.5C 256.957,254.201 257.624,258.868 258.5,263.5C 258.833,266.167 259.167,268.833 259.5,271.5C 257.022,266.401 255.355,261.067 254.5,255.5C 253.103,249.93 252.437,244.264 252.5,238.5C 255.385,238.194 258.052,238.527 260.5,239.5 Z"/></g>
<g><path style="opacity:1" fill="#fbdeb8" d="M 284.5,245.5 C 288.805,245.982 292.139,247.982 294.5,251.5C 291.126,249.483 287.793,247.483 284.5,245.5 Z"/></g>
<g><path style="opacity:1" fill="#e3823d" d="M 308.5,230.5 C 307.975,235.169 306.975,239.669 305.5,244C 305.807,247.376 306.474,250.543 307.5,253.5C 307.5,255.167 307.5,256.833 307.5,258.5C 306.728,257.306 305.728,256.306 304.5,255.5C 304.334,248.825 304.5,242.158 305,235.5C 306.189,233.767 307.356,232.1 308.5,230.5 Z"/></g>
<g><path style="opacity:1" fill="#d59a6c" d="M 363.5,244.5 C 360.905,248.126 357.572,250.792 353.5,252.5C 352.833,252.5 352.167,252.5 351.5,252.5C 352.29,251.206 353.29,250.039 354.5,249C 357.815,247.962 360.815,246.462 363.5,244.5 Z"/></g>
<g><path style="opacity:1" fill="#de8646" d="M 340.5,233.5 C 341.167,234.167 341.833,234.833 342.5,235.5C 342.819,240.363 342.486,245.03 341.5,249.5C 341.608,244.13 341.275,238.797 340.5,233.5 Z"/></g>
<g><path style="opacity:1" fill="#ce8c56" d="M 279.5,244.5 C 280.833,244.833 282.167,245.167 283.5,245.5C 283.833,245.5 284.167,245.5 284.5,245.5C 287.793,247.483 291.126,249.483 294.5,251.5C 295.167,252.5 295.833,253.5 296.5,254.5C 296.5,254.833 296.5,255.167 296.5,255.5C 295.5,254.833 294.5,254.167 293.5,253.5C 290.895,252.532 288.561,251.198 286.5,249.5C 284.025,248.869 281.691,247.869 279.5,246.5C 279.5,245.833 279.5,245.167 279.5,244.5 Z"/></g>
<g><path style="opacity:1" fill="#fef6e1" d="M 302.5,233.5 C 301.243,238.964 301.243,244.297 302.5,249.5C 302.5,249.833 302.5,250.167 302.5,250.5C 302.663,252.857 302.497,255.19 302,257.5C 301.072,254.965 299.238,253.965 296.5,254.5C 295.833,253.5 295.167,252.5 294.5,251.5C 292.139,247.982 288.805,245.982 284.5,245.5C 284.167,245.5 283.833,245.5 283.5,245.5C 283.389,244.883 283.056,244.383 282.5,244C 276.789,242.166 271.122,240.666 265.5,239.5C 267.833,239.5 270.167,239.5 272.5,239.5C 276.342,239.892 280.009,240.892 283.5,242.5C 283.611,243.117 283.944,243.617 284.5,244C 286.5,244.333 288.5,244.667 290.5,245C 292.674,248.37 295.674,250.203 299.5,250.5C 299.172,245.125 299.505,239.792 300.5,234.5C 301.183,234.137 301.85,233.804 302.5,233.5 Z"/></g>
<g><path style="opacity:1" fill="#d08854" d="M 342.5,235.5 C 343.167,235.5 343.5,235.833 343.5,236.5C 343.653,242.869 343.32,249.203 342.5,255.5C 341.833,256.167 341.167,256.833 340.5,257.5C 340.401,254.763 340.735,252.096 341.5,249.5C 342.486,245.03 342.819,240.363 342.5,235.5 Z"/></g>
<g><path style="opacity:1" fill="#fef3de" d="M 344.5,236.5 C 345.709,240.618 346.376,244.951 346.5,249.5C 351.372,249.397 355.039,247.23 357.5,243C 363.677,242.221 369.677,241.055 375.5,239.5C 378.167,239.5 380.833,239.5 383.5,239.5C 383.5,239.833 383.5,240.167 383.5,240.5C 382.833,240.5 382.167,240.5 381.5,240.5C 376.607,241.415 371.94,242.748 367.5,244.5C 366.167,244.5 364.833,244.5 363.5,244.5C 360.815,246.462 357.815,247.962 354.5,249C 353.29,250.039 352.29,251.206 351.5,252.5C 350.167,253.167 349.167,254.167 348.5,255.5C 346.712,255.785 345.045,255.452 343.5,254.5C 344.572,252.283 345.239,249.95 345.5,247.5C 344.754,243.868 344.421,240.202 344.5,236.5 Z"/></g>
<g><path style="opacity:1" fill="#d78548" d="M 363.5,244.5 C 364.833,244.5 366.167,244.5 367.5,244.5C 367.5,244.833 367.5,245.167 367.5,245.5C 363.175,247.624 359.175,250.457 355.5,254C 354.552,254.483 353.552,254.649 352.5,254.5C 352.833,253.833 353.167,253.167 353.5,252.5C 357.572,250.792 360.905,248.126 363.5,244.5 Z"/></g>
<g><path style="opacity:0.173" fill="#f9f8f5" d="M 393.5,168.5 C 439.23,194.601 464.897,233.934 470.5,286.5C 469.778,286.918 469.278,287.584 469,288.5C 467.552,278.261 465.719,268.095 463.5,258C 462.742,255.908 461.575,254.075 460,252.5C 459.566,256.223 458.732,256.39 457.5,253C 458.388,251.78 459.055,250.447 459.5,249C 454.985,236.449 448.652,224.783 440.5,214C 439.552,213.517 438.552,213.351 437.5,213.5C 437.799,211.396 437.466,209.396 436.5,207.5C 435.033,207.723 433.533,208.056 432,208.5C 428.833,207.333 428.667,205.833 431.5,204C 428.504,199.307 424.838,195.307 420.5,192C 416.21,192.564 414.043,190.731 414,186.5C 407.129,180.311 399.629,174.978 391.5,170.5C 392.243,169.818 392.909,169.151 393.5,168.5 Z"/></g>
<g><path style="opacity:1" fill="#e7ba8c" d="M 351.5,252.5 C 351.5,254.5 350.5,255.5 348.5,255.5C 349.167,254.167 350.167,253.167 351.5,252.5 Z"/></g>
<g><path style="opacity:1" fill="#e87f36" d="M 286.5,249.5 C 288.561,251.198 290.895,252.532 293.5,253.5C 293.5,254.5 293.5,255.5 293.5,256.5C 294.5,256.5 295.5,256.5 296.5,256.5C 296.41,260.665 298.41,262.998 302.5,263.5C 303.567,267.532 304.567,271.532 305.5,275.5C 305.5,276.5 305.5,277.5 305.5,278.5C 302.738,274.026 300.405,269.193 298.5,264C 297.069,263.535 295.903,262.701 295,261.5C 294.02,263.059 293.187,264.726 292.5,266.5C 291.509,262.555 291.176,258.555 291.5,254.5C 289.173,254.247 287.173,254.914 285.5,256.5C 278.833,255.167 278.833,253.833 285.5,252.5C 286.386,251.675 286.719,250.675 286.5,249.5 Z"/></g>
<g><path style="opacity:1" fill="#d98b4f" d="M 293.5,253.5 C 294.5,254.167 295.5,254.833 296.5,255.5C 299.558,257.243 301.558,259.91 302.5,263.5C 298.41,262.998 296.41,260.665 296.5,256.5C 295.5,256.5 294.5,256.5 293.5,256.5C 293.5,255.5 293.5,254.5 293.5,253.5 Z"/></g>
<g><path style="opacity:1" fill="#d08d57" d="M 256.5,249.5 C 257.117,249.611 257.617,249.944 258,250.5C 259.051,255.474 259.885,260.474 260.5,265.5C 259.833,264.833 259.167,264.167 258.5,263.5C 257.624,258.868 256.957,254.201 256.5,249.5 Z"/></g>
<g><path style="opacity:1" fill="#fef9e8" d="M 384.5,275.5 C 384.795,273.577 385.628,271.91 387,270.5C 387.497,268.19 387.663,265.857 387.5,263.5C 387.5,263.167 387.5,262.833 387.5,262.5C 391.192,255.098 393.192,247.098 393.5,238.5C 389.958,238.187 386.625,238.521 383.5,239.5C 380.833,239.5 378.167,239.5 375.5,239.5C 377.631,238.686 379.964,238.186 382.5,238C 385.081,235.464 387.914,233.298 391,231.5C 392.811,232.078 394.645,232.578 396.5,233C 395.833,233.667 395.167,234.333 394.5,235C 395.134,237.075 395.468,239.241 395.5,241.5C 394.862,247.524 394.029,253.524 393,259.5C 390.119,264.026 388.286,269.026 387.5,274.5C 386.675,275.386 385.675,275.719 384.5,275.5 Z"/></g>
<g><path style="opacity:1" fill="#f8dfbe" d="M 343.5,236.5 C 343.833,236.5 344.167,236.5 344.5,236.5C 344.421,240.202 344.754,243.868 345.5,247.5C 345.239,249.95 344.572,252.283 343.5,254.5C 345.045,255.452 346.712,255.785 348.5,255.5C 347.5,256.833 346.5,258.167 345.5,259.5C 344.5,259.5 343.5,259.5 342.5,259.5C 342.5,258.167 342.5,256.833 342.5,255.5C 343.32,249.203 343.653,242.869 343.5,236.5 Z"/></g>
<g><path style="opacity:1" fill="#ce8c55" d="M 383.5,240.5 C 383.5,240.167 383.5,239.833 383.5,239.5C 386.572,239.183 389.572,239.516 392.5,240.5C 391.086,247.904 389.42,255.237 387.5,262.5C 387.5,262.833 387.5,263.167 387.5,263.5C 386.715,266.404 385.381,269.07 383.5,271.5C 383.959,268.123 384.626,264.789 385.5,261.5C 385.5,261.167 385.5,260.833 385.5,260.5C 386.632,256.981 387.632,253.314 388.5,249.5C 389.477,246.713 389.81,243.713 389.5,240.5C 387.5,240.5 385.5,240.5 383.5,240.5 Z"/></g>
<g><path style="opacity:1" fill="#f3c498" d="M 342.5,255.5 C 342.5,256.833 342.5,258.167 342.5,259.5C 341.833,260.167 341.167,260.833 340.5,261.5C 340.5,260.5 340.5,259.5 340.5,258.5C 340.5,258.167 340.5,257.833 340.5,257.5C 341.167,256.833 341.833,256.167 342.5,255.5 Z"/></g>
<g><path style="opacity:1" fill="#fce5ba" d="M 302.5,250.5 C 303.167,252.167 303.833,253.833 304.5,255.5C 304.934,259.277 306.267,262.61 308.5,265.5C 309.756,270.109 310.922,274.775 312,279.5C 312.383,280.056 312.883,280.389 313.5,280.5C 313.41,283.152 314.076,285.485 315.5,287.5C 316.929,293.13 318.929,298.464 321.5,303.5C 322.665,308.74 323.998,308.74 325.5,303.5C 326.099,300.037 327.099,296.704 328.5,293.5C 330.877,288.038 332.877,282.372 334.5,276.5C 334.629,274.784 334.962,273.117 335.5,271.5C 337.462,268.333 339.129,264.999 340.5,261.5C 341.167,260.833 341.833,260.167 342.5,259.5C 343.5,259.5 344.5,259.5 345.5,259.5C 342.744,263.017 341.077,267.017 340.5,271.5C 337.929,276.536 335.929,281.87 334.5,287.5C 332.902,292.737 331.235,298.07 329.5,303.5C 327.926,305.102 327.259,307.102 327.5,309.5C 326.326,310.514 325.66,311.847 325.5,313.5C 324.954,315.303 324.12,316.97 323,318.5C 322.487,317.473 321.987,316.473 321.5,315.5C 322.75,315.423 323.583,314.756 324,313.5C 324.494,311.866 324.66,310.199 324.5,308.5C 322.602,307.904 320.935,307.904 319.5,308.5C 317.221,304.276 315.221,299.943 313.5,295.5C 313.435,292.572 312.768,289.905 311.5,287.5C 311.405,285.214 310.738,283.214 309.5,281.5C 307.905,276.548 306.405,271.548 305,266.5C 304.148,265.429 303.315,264.429 302.5,263.5C 301.558,259.91 299.558,257.243 296.5,255.5C 296.5,255.167 296.5,254.833 296.5,254.5C 299.238,253.965 301.072,254.965 302,257.5C 302.497,255.19 302.663,252.857 302.5,250.5 Z"/></g>
<g><path style="opacity:1" fill="#d18c56" d="M 304.5,255.5 C 305.728,256.306 306.728,257.306 307.5,258.5C 307.5,259.167 307.5,259.833 307.5,260.5C 308.038,262.117 308.371,263.784 308.5,265.5C 306.267,262.61 304.934,259.277 304.5,255.5 Z"/></g>
<g><path style="opacity:1" fill="#ed7f32" d="M 326.5,209.5 C 328.091,212.352 329.424,215.352 330.5,218.5C 328.209,216.876 326.209,214.876 324.5,212.5C 324.167,213.333 323.833,214.167 323.5,215C 324.585,217.413 325.585,219.913 326.5,222.5C 325.624,223.251 324.624,223.751 323.5,224C 324.238,243.11 324.905,262.276 325.5,281.5C 326.5,281.5 327.5,281.5 328.5,281.5C 328.339,278.472 329.006,275.639 330.5,273C 329.167,271.667 327.833,270.333 326.5,269C 327.956,267.203 329.456,265.369 331,263.5C 331.417,264.756 332.25,265.423 333.5,265.5C 331.773,270.267 330.773,275.267 330.5,280.5C 330.5,280.833 330.5,281.167 330.5,281.5C 329.883,281.611 329.383,281.944 329,282.5C 327.456,289.252 325.623,295.919 323.5,302.5C 322.894,299.66 321.561,297.327 319.5,295.5C 319.606,292.921 318.939,290.588 317.5,288.5C 317.05,284.326 316.05,280.326 314.5,276.5C 313.471,270.51 311.138,265.177 307.5,260.5C 307.5,259.833 307.5,259.167 307.5,258.5C 308.794,259.29 309.961,260.29 311,261.5C 311.473,263.779 312.473,265.779 314,267.5C 315.308,265.359 316.808,263.359 318.5,261.5C 319.736,260.754 321.07,260.421 322.5,260.5C 321.442,248.522 321.275,236.522 322,224.5C 323.714,221.45 323.714,218.45 322,215.5C 320.855,216.684 319.688,216.684 318.5,215.5C 319.209,214.596 320.209,214.263 321.5,214.5C 321.5,212.5 321.5,210.5 321.5,208.5C 323.292,208.366 324.958,208.699 326.5,209.5 Z"/></g>
<g><path style="opacity:1" fill="#d38d57" d="M 351.5,252.5 C 352.167,252.5 352.833,252.5 353.5,252.5C 353.167,253.167 352.833,253.833 352.5,254.5C 350.141,257.851 347.808,261.185 345.5,264.5C 343.697,266.84 342.03,269.173 340.5,271.5C 341.077,267.017 342.744,263.017 345.5,259.5C 346.5,258.167 347.5,256.833 348.5,255.5C 350.5,255.5 351.5,254.5 351.5,252.5 Z"/></g>
<g><path style="opacity:1" fill="#fad6ab" d="M 258.5,263.5 C 259.167,264.167 259.833,264.833 260.5,265.5C 260.833,267.5 261.167,269.5 261.5,271.5C 261.167,271.5 260.833,271.5 260.5,271.5C 260.167,271.5 259.833,271.5 259.5,271.5C 259.167,268.833 258.833,266.167 258.5,263.5 Z"/></g>
<g><path style="opacity:1" fill="#d39156" d="M 340.5,258.5 C 340.5,259.5 340.5,260.5 340.5,261.5C 339.129,264.999 337.462,268.333 335.5,271.5C 336.41,266.849 338.076,262.515 340.5,258.5 Z"/></g>
<g><path style="opacity:1" fill="#cd905d" d="M 308.5,265.5 C 310.38,268.597 311.713,271.93 312.5,275.5C 313.038,277.117 313.371,278.784 313.5,280.5C 312.883,280.389 312.383,280.056 312,279.5C 310.922,274.775 309.756,270.109 308.5,265.5 Z"/></g>
<g><path style="opacity:1" fill="#ee7d2f" d="M 385.5,260.5 C 385.5,260.833 385.5,261.167 385.5,261.5C 384.504,261.414 383.671,261.748 383,262.5C 382.184,268.68 379.517,274.013 375,278.5C 374.517,279.448 374.351,280.448 374.5,281.5C 373.178,281.33 372.011,281.663 371,282.5C 370.462,285.08 369.296,287.247 367.5,289C 367.833,289.5 368.167,290 368.5,290.5C 373.281,292.567 378.281,293.9 383.5,294.5C 383.5,294.833 383.5,295.167 383.5,295.5C 387.105,297.766 390.438,300.433 393.5,303.5C 393.208,309.625 390.041,312.958 384,313.5C 383.506,315.134 383.34,316.801 383.5,318.5C 383.5,318.833 383.5,319.167 383.5,319.5C 381.708,319.366 380.042,319.699 378.5,320.5C 379.324,317.236 379.658,313.902 379.5,310.5C 374.167,310.167 374.167,309.833 379.5,309.5C 379.5,308.5 379.5,307.5 379.5,306.5C 380.978,306.762 382.311,306.429 383.5,305.5C 382.667,305.167 381.833,304.833 381,304.5C 375.969,305.84 370.969,307.174 366,308.5C 361.151,307.45 356.818,306.784 353,306.5C 350.214,312.096 345.881,313.763 340,311.5C 337.985,312.842 335.818,313.342 333.5,313C 332.253,311.542 332.253,310.042 333.5,308.5C 335.386,307.594 337.22,306.594 339,305.5C 343.3,299.933 347.467,294.266 351.5,288.5C 353.078,287.702 354.744,287.202 356.5,287C 355.376,286.751 354.376,286.251 353.5,285.5C 355.524,283.31 357.357,280.977 359,278.5C 359.667,277.5 359.667,276.5 359,275.5C 354.206,279.751 350.373,284.751 347.5,290.5C 346.675,291.386 345.675,291.719 344.5,291.5C 344.649,290.448 344.483,289.448 344,288.5C 342.271,288.026 341.105,287.026 340.5,285.5C 342.542,278.632 344.208,271.632 345.5,264.5C 347.808,261.185 350.141,257.851 352.5,254.5C 353.552,254.649 354.552,254.483 355.5,254C 359.175,250.457 363.175,247.624 367.5,245.5C 374.148,244.861 380.814,244.527 387.5,244.5C 386.623,249.801 385.956,255.135 385.5,260.5 Z"/></g>
<g><path style="opacity:1" fill="#e18040" d="M 307.5,260.5 C 311.138,265.177 313.471,270.51 314.5,276.5C 313.833,276.167 313.167,275.833 312.5,275.5C 311.713,271.93 310.38,268.597 308.5,265.5C 308.371,263.784 308.038,262.117 307.5,260.5 Z"/></g>
<g><path style="opacity:1" fill="#e2813a" d="M 345.5,264.5 C 344.208,271.632 342.542,278.632 340.5,285.5C 339.596,286.209 339.263,287.209 339.5,288.5C 338.5,288.5 337.5,288.5 336.5,288.5C 336.665,291.518 336.498,294.518 336,297.5C 334.236,299.389 332.736,301.389 331.5,303.5C 333.64,298.463 334.64,293.13 334.5,287.5C 337.76,282.814 339.76,277.481 340.5,271.5C 342.03,269.173 343.697,266.84 345.5,264.5 Z"/></g>
<g><path style="opacity:1" fill="#f5d8b3" d="M 387.5,263.5 C 387.663,265.857 387.497,268.19 387,270.5C 385.628,271.91 384.795,273.577 384.5,275.5C 383.5,276.167 382.5,276.833 381.5,277.5C 382.63,275.685 383.296,273.685 383.5,271.5C 385.381,269.07 386.715,266.404 387.5,263.5 Z"/></g>
<g><path style="opacity:1" fill="#d28d54" d="M 260.5,265.5 C 261.935,266.913 262.935,268.58 263.5,270.5C 263.5,271.167 263.833,271.5 264.5,271.5C 265.522,275.724 267.689,279.391 271,282.5C 271.483,283.448 271.649,284.448 271.5,285.5C 269.5,283.5 267.5,281.5 265.5,279.5C 264.35,276.702 263.017,274.035 261.5,271.5C 261.167,269.5 260.833,267.5 260.5,265.5 Z"/></g>
<g><path style="opacity:1" fill="#ce9059" d="M 302.5,263.5 C 303.315,264.429 304.148,265.429 305,266.5C 306.405,271.548 307.905,276.548 309.5,281.5C 307.658,279.81 306.325,277.81 305.5,275.5C 304.567,271.532 303.567,267.532 302.5,263.5 Z"/></g>
<g><path style="opacity:1" fill="#ef7e2f" d="M 279.5,246.5 C 281.691,247.869 284.025,248.869 286.5,249.5C 286.719,250.675 286.386,251.675 285.5,252.5C 278.833,253.833 278.833,255.167 285.5,256.5C 287.173,254.914 289.173,254.247 291.5,254.5C 291.176,258.555 291.509,262.555 292.5,266.5C 293.187,264.726 294.02,263.059 295,261.5C 295.903,262.701 297.069,263.535 298.5,264C 300.405,269.193 302.738,274.026 305.5,278.5C 308.343,290.103 311.676,301.436 315.5,312.5C 316.092,315.127 316.425,317.794 316.5,320.5C 313.984,320.245 311.65,319.411 309.5,318C 307.833,317.333 306.167,317.333 304.5,318C 305.833,318.667 305.833,319.333 304.5,320C 306.833,320.333 309.167,320.667 311.5,321C 309.285,321.69 307.118,322.524 305,323.5C 300.845,322.504 297.011,323.17 293.5,325.5C 289.554,326.527 285.554,326.694 281.5,326C 276.931,323.144 271.931,321.477 266.5,321C 264.418,316.742 261.085,314.242 256.5,313.5C 255.5,313.167 254.833,312.5 254.5,311.5C 252.32,309.152 250.32,306.652 248.5,304C 249.493,302.033 251.16,300.866 253.5,300.5C 254.386,299.675 254.719,298.675 254.5,297.5C 254.833,297.5 255.167,297.5 255.5,297.5C 257.01,296.272 258.51,296.272 260,297.5C 264.13,293.853 268.964,292.02 274.5,292C 278.368,287.127 277.201,283.294 271,280.5C 269.357,277.039 267.19,274.039 264.5,271.5C 263.833,271.5 263.5,271.167 263.5,270.5C 261.451,263.762 260.118,256.762 259.5,249.5C 255.198,246.45 255.532,244.116 260.5,242.5C 266.68,244.236 273.014,245.57 279.5,246.5 Z"/></g>
<g><path style="opacity:1" fill="#f6d3b1" d="M 261.5,271.5 C 263.017,274.035 264.35,276.702 265.5,279.5C 262.593,277.685 261.259,275.019 261.5,271.5 Z"/></g>
<g><path style="opacity:1" fill="#d28c57" d="M 383.5,271.5 C 383.296,273.685 382.63,275.685 381.5,277.5C 380.075,278.922 379.075,280.589 378.5,282.5C 376.646,283.241 374.979,284.241 373.5,285.5C 377.008,281.807 379.508,277.474 381,272.5C 381.671,271.748 382.504,271.414 383.5,271.5 Z"/></g>
<g><path style="opacity:1" fill="#d08747" d="M 312.5,275.5 C 313.167,275.833 313.833,276.167 314.5,276.5C 316.05,280.326 317.05,284.326 317.5,288.5C 316.833,288.167 316.167,287.833 315.5,287.5C 315.662,285.473 315.495,283.473 315,281.5C 314.617,280.944 314.117,280.611 313.5,280.5C 313.371,278.784 313.038,277.117 312.5,275.5 Z"/></g>
<g><path style="opacity:1" fill="#d39559" d="M 334.5,276.5 C 332.877,282.372 330.877,288.038 328.5,293.5C 328.53,289.382 329.197,285.382 330.5,281.5C 330.5,281.167 330.5,280.833 330.5,280.5C 331.249,279.469 331.915,278.302 332.5,277C 333.094,276.536 333.761,276.369 334.5,276.5 Z"/></g>
<g><path style="opacity:1" fill="#cb9c63" d="M 313.5,280.5 C 314.117,280.611 314.617,280.944 315,281.5C 315.495,283.473 315.662,285.473 315.5,287.5C 314.076,285.485 313.41,283.152 313.5,280.5 Z"/></g>
<g><path style="opacity:1" fill="#e5833f" d="M 385.5,261.5 C 384.626,264.789 383.959,268.123 383.5,271.5C 382.504,271.414 381.671,271.748 381,272.5C 379.508,277.474 377.008,281.807 373.5,285.5C 373.167,286.833 372.833,288.167 372.5,289.5C 375.627,292.055 379.294,293.055 383.5,292.5C 383.5,293.167 383.5,293.833 383.5,294.5C 378.281,293.9 373.281,292.567 368.5,290.5C 368.167,290 367.833,289.5 367.5,289C 369.296,287.247 370.462,285.08 371,282.5C 372.011,281.663 373.178,281.33 374.5,281.5C 374.351,280.448 374.517,279.448 375,278.5C 379.517,274.013 382.184,268.68 383,262.5C 383.671,261.748 384.504,261.414 385.5,261.5 Z"/></g>
<g><path style="opacity:1" fill="#dca273" d="M 309.5,281.5 C 310.738,283.214 311.405,285.214 311.5,287.5C 309.72,286.01 309.054,284.01 309.5,281.5 Z"/></g>
<g><path style="opacity:1" fill="#d99a64" d="M 340.5,271.5 C 339.76,277.481 337.76,282.814 334.5,287.5C 335.929,281.87 337.929,276.536 340.5,271.5 Z"/></g>
<g><path style="opacity:1" fill="#fadeba" d="M 378.5,282.5 C 376.94,285.459 377.273,288.126 379.5,290.5C 377.139,290.326 374.806,289.993 372.5,289.5C 372.833,288.167 373.167,286.833 373.5,285.5C 374.979,284.241 376.646,283.241 378.5,282.5 Z"/></g>
<g><path style="opacity:1" fill="#fbfcf0" d="M 260.5,271.5 C 260.833,271.5 261.167,271.5 261.5,271.5C 261.259,275.019 262.593,277.685 265.5,279.5C 265.343,280.873 265.51,282.207 266,283.5C 267.675,284.595 268.842,286.095 269.5,288C 265.343,289.394 261.343,290.894 257.5,292.5C 253.695,293.574 250.029,294.908 246.5,296.5C 248.309,295.519 249.643,294.019 250.5,292C 253.908,291.02 257.242,289.853 260.5,288.5C 257.593,284.641 258.426,283.307 263,284.5C 261.414,280.457 260.58,276.124 260.5,271.5 Z"/></g>
<g><path style="opacity:1" fill="#ffcc8c" d="M 271.5,286.5 C 273.985,287.74 273.985,288.74 271.5,289.5C 271.5,288.5 271.5,287.5 271.5,286.5 Z"/></g>
<g><path style="opacity:1" fill="#f8ddbd" d="M 265.5,279.5 C 267.5,281.5 269.5,283.5 271.5,285.5C 271.5,285.833 271.5,286.167 271.5,286.5C 271.5,287.5 271.5,288.5 271.5,289.5C 269.214,289.595 267.214,290.262 265.5,291.5C 262.673,291.584 260.006,292.25 257.5,293.5C 257.5,293.167 257.5,292.833 257.5,292.5C 261.343,290.894 265.343,289.394 269.5,288C 268.842,286.095 267.675,284.595 266,283.5C 265.51,282.207 265.343,280.873 265.5,279.5 Z"/></g>
<g><path style="opacity:1" fill="#fdf2da" d="M 384.5,275.5 C 385.092,279.074 383.592,281.074 380,281.5C 379.009,283.447 378.675,285.447 379,287.5C 382.595,288.289 386.095,289.456 389.5,291C 391.037,292.11 391.703,293.61 391.5,295.5C 388.833,294.5 386.167,293.5 383.5,292.5C 382.167,291.833 380.833,291.167 379.5,290.5C 377.273,288.126 376.94,285.459 378.5,282.5C 379.075,280.589 380.075,278.922 381.5,277.5C 382.5,276.833 383.5,276.167 384.5,275.5 Z"/></g>
<g><path style="opacity:1" fill="#cd8a52" d="M 372.5,289.5 C 374.806,289.993 377.139,290.326 379.5,290.5C 380.833,291.167 382.167,291.833 383.5,292.5C 379.294,293.055 375.627,292.055 372.5,289.5 Z"/></g>
<g><path style="opacity:1" fill="#d08f5a" d="M 265.5,291.5 C 262.66,293.915 259.327,295.248 255.5,295.5C 255.5,295.167 255.5,294.833 255.5,294.5C 255.842,293.662 256.508,293.328 257.5,293.5C 260.006,292.25 262.673,291.584 265.5,291.5 Z"/></g>
<g><path style="opacity:1" fill="#cc8f5f" d="M 231.5,295.5 C 233.407,305.48 230.074,308.146 221.5,303.5C 221.167,303.5 220.833,303.5 220.5,303.5C 219.835,294.476 223.501,291.809 231.5,295.5 Z"/></g>
<g><path style="opacity:1" fill="#e28540" d="M 264.5,271.5 C 267.19,274.039 269.357,277.039 271,280.5C 277.201,283.294 278.368,287.127 274.5,292C 268.964,292.02 264.13,293.853 260,297.5C 258.51,296.272 257.01,296.272 255.5,297.5C 255.5,296.833 255.5,296.167 255.5,295.5C 259.327,295.248 262.66,293.915 265.5,291.5C 267.214,290.262 269.214,289.595 271.5,289.5C 273.985,288.74 273.985,287.74 271.5,286.5C 271.5,286.167 271.5,285.833 271.5,285.5C 271.649,284.448 271.483,283.448 271,282.5C 267.689,279.391 265.522,275.724 264.5,271.5 Z"/></g>
<g><path style="opacity:1" fill="#d49b6d" d="M 311.5,287.5 C 312.768,289.905 313.435,292.572 313.5,295.5C 312.883,295.389 312.383,295.056 312,294.5C 311.503,292.19 311.337,289.857 311.5,287.5 Z"/></g>
<g><path style="opacity:1" fill="#e4bb91" d="M 255.5,294.5 C 255.5,294.833 255.5,295.167 255.5,295.5C 254.609,296.11 253.609,296.443 252.5,296.5C 252.973,295.094 253.973,294.427 255.5,294.5 Z"/></g>
<g><path style="opacity:1" fill="#fceed2" d="M 391.5,295.5 C 394.495,295.294 397.162,295.96 399.5,297.5C 399.5,298.5 399.5,299.5 399.5,300.5C 396.562,299.221 393.896,297.555 391.5,295.5 Z"/></g>
<g><path style="opacity:1" fill="#fef3d8" d="M 257.5,292.5 C 257.5,292.833 257.5,293.167 257.5,293.5C 256.508,293.328 255.842,293.662 255.5,294.5C 253.973,294.427 252.973,295.094 252.5,296.5C 250.326,296.75 248.659,297.75 247.5,299.5C 245.589,300.075 243.922,301.075 242.5,302.5C 242.392,300.486 243.058,298.82 244.5,297.5C 245.167,297.167 245.833,296.833 246.5,296.5C 250.029,294.908 253.695,293.574 257.5,292.5 Z"/></g>
<g><path style="opacity:1" fill="#cc8e5c" d="M 315.5,287.5 C 316.167,287.833 316.833,288.167 317.5,288.5C 318.939,290.588 319.606,292.921 319.5,295.5C 320.371,298.112 321.037,300.779 321.5,303.5C 318.929,298.464 316.929,293.13 315.5,287.5 Z"/></g>
<g><path style="opacity:1" fill="#d29456" d="M 334.5,287.5 C 334.64,293.13 333.64,298.463 331.5,303.5C 331.167,303.5 330.833,303.5 330.5,303.5C 330.167,303.5 329.833,303.5 329.5,303.5C 331.235,298.07 332.902,292.737 334.5,287.5 Z"/></g>
<g><path style="opacity:1" fill="#cb8e5a" d="M 383.5,292.5 C 386.167,293.5 388.833,294.5 391.5,295.5C 393.896,297.555 396.562,299.221 399.5,300.5C 400.29,301.401 401.29,302.068 402.5,302.5C 402.262,304.404 401.262,305.738 399.5,306.5C 399.714,304.856 399.38,303.356 398.5,302C 394.525,300.564 390.858,298.564 387.5,296C 386.207,295.51 384.873,295.343 383.5,295.5C 383.5,295.167 383.5,294.833 383.5,294.5C 383.5,293.833 383.5,293.167 383.5,292.5 Z"/></g>
<g><path style="opacity:1" fill="#e1833e" d="M 223.5,298.5 C 223.5,299.5 223.5,300.5 223.5,301.5C 226.056,301.868 228.056,301.034 229.5,299C 228.142,296.327 226.142,295.827 223.5,297.5C 223.97,296.307 224.97,295.64 226.5,295.5C 229.5,295.167 230.833,296.5 230.5,299.5C 230.016,302.26 228.35,303.927 225.5,304.5C 222.643,303.045 221.977,301.045 223.5,298.5 Z"/></g>
<g><path style="opacity:1" fill="#e28440" d="M 254.5,297.5 C 254.719,298.675 254.386,299.675 253.5,300.5C 251.16,300.866 249.493,302.033 248.5,304C 250.32,306.652 252.32,309.152 254.5,311.5C 253.833,311.5 253.167,311.5 252.5,311.5C 250.32,309.152 248.32,306.652 246.5,304C 247.825,300.182 250.492,298.015 254.5,297.5 Z"/></g>
<g><path style="opacity:1" fill="#d78744" d="M 330.5,281.5 C 329.197,285.382 328.53,289.382 328.5,293.5C 327.099,296.704 326.099,300.037 325.5,303.5C 324.167,303.5 322.833,303.5 321.5,303.5C 321.037,300.779 320.371,298.112 319.5,295.5C 321.561,297.327 322.894,299.66 323.5,302.5C 325.623,295.919 327.456,289.252 329,282.5C 329.383,281.944 329.883,281.611 330.5,281.5 Z"/></g>
<g><path style="opacity:1" fill="#fdf2dd" d="M 234.5,305.5 C 233.833,305.5 233.167,305.5 232.5,305.5C 233.569,302.592 233.736,299.592 233,296.5C 232.617,295.944 232.117,295.611 231.5,295.5C 223.501,291.809 219.835,294.476 220.5,303.5C 219.833,303.5 219.167,303.5 218.5,303.5C 218.5,300.5 218.5,297.5 218.5,294.5C 221.021,292.971 223.854,291.971 227,291.5C 235.277,293.309 237.777,297.976 234.5,305.5 Z"/></g>
<g><path style="opacity:1" fill="#f57d31" d="M 223.5,298.5 C 223.5,298.167 223.5,297.833 223.5,297.5C 226.142,295.827 228.142,296.327 229.5,299C 228.056,301.034 226.056,301.868 223.5,301.5C 223.5,300.5 223.5,299.5 223.5,298.5 Z"/></g>
<g><path style="opacity:1" fill="#fdf4df" d="M 419.5,289.5 C 426.876,292.932 429.209,298.599 426.5,306.5C 423.22,307.369 419.887,308.036 416.5,308.5C 414.074,308.596 411.907,307.93 410,306.5C 409.333,302.833 409.333,299.167 410,295.5C 413.34,293.637 416.507,291.637 419.5,289.5 Z"/></g>
<g><path style="opacity:1" fill="#dc8445" d="M 422.5,303.5 C 419.813,303.664 417.146,303.497 414.5,303C 413.594,301.301 413.261,299.467 413.5,297.5C 413.5,296.833 413.833,296.5 414.5,296.5C 414.833,296.5 415.167,296.5 415.5,296.5C 417.607,295.532 419.941,295.198 422.5,295.5C 422.5,298.167 422.5,300.833 422.5,303.5 Z"/></g>
<g><path style="opacity:1" fill="#ed7e31" d="M 415.5,296.5 C 421.694,295.964 422.86,297.964 419,302.5C 417.56,301.852 416.06,301.519 414.5,301.5C 414.366,299.708 414.699,298.042 415.5,296.5 Z"/></g>
<g><path style="opacity:1" fill="#cc8c60" d="M 413.5,297.5 C 413.261,299.467 413.594,301.301 414.5,303C 417.146,303.497 419.813,303.664 422.5,303.5C 419.295,307.408 415.962,307.408 412.5,303.5C 412.205,301.265 412.539,299.265 413.5,297.5 Z"/></g>
<g><path style="opacity:1" fill="#e5b28e" d="M 414.5,295.5 C 414.5,295.833 414.5,296.167 414.5,296.5C 413.833,296.5 413.5,296.833 413.5,297.5C 412.539,299.265 412.205,301.265 412.5,303.5C 411.371,301.372 411.204,299.039 412,296.5C 412.671,295.748 413.504,295.414 414.5,295.5 Z"/></g>
<g><path style="opacity:1" fill="#c9915f" d="M 422.5,303.5 C 422.5,300.833 422.5,298.167 422.5,295.5C 419.941,295.198 417.607,295.532 415.5,296.5C 415.167,296.5 414.833,296.5 414.5,296.5C 414.5,296.167 414.5,295.833 414.5,295.5C 416.766,293.237 419.433,292.904 422.5,294.5C 424.976,297.713 424.976,300.713 422.5,303.5 Z"/></g>
<g><path style="opacity:1" fill="#d38d59" d="M 255.5,295.5 C 255.5,296.167 255.5,296.833 255.5,297.5C 255.167,297.5 254.833,297.5 254.5,297.5C 250.492,298.015 247.825,300.182 246.5,304C 248.32,306.652 250.32,309.152 252.5,311.5C 251.833,311.5 251.167,311.5 250.5,311.5C 248.32,309.152 246.32,306.652 244.5,304C 245.315,302.357 246.315,300.857 247.5,299.5C 248.659,297.75 250.326,296.75 252.5,296.5C 253.609,296.443 254.609,296.11 255.5,295.5 Z"/></g>
<g><path style="opacity:1" fill="#db8340" d="M 305.5,275.5 C 306.325,277.81 307.658,279.81 309.5,281.5C 309.054,284.01 309.72,286.01 311.5,287.5C 311.337,289.857 311.503,292.19 312,294.5C 312.383,295.056 312.883,295.389 313.5,295.5C 313.945,301.841 315.945,307.508 319.5,312.5C 319.5,313.167 319.5,313.833 319.5,314.5C 318.167,313.833 316.833,313.167 315.5,312.5C 311.676,301.436 308.343,290.103 305.5,278.5C 305.5,277.5 305.5,276.5 305.5,275.5 Z"/></g>
<g><path style="opacity:1" fill="#d6a782" d="M 247.5,299.5 C 246.315,300.857 245.315,302.357 244.5,304C 246.32,306.652 248.32,309.152 250.5,311.5C 250.167,311.5 249.833,311.5 249.5,311.5C 245.988,309.332 243.655,306.332 242.5,302.5C 243.922,301.075 245.589,300.075 247.5,299.5 Z"/></g>
<g><path style="opacity:1" fill="#ba945d" d="M 321.5,303.5 C 322.833,303.5 324.167,303.5 325.5,303.5C 323.998,308.74 322.665,308.74 321.5,303.5 Z"/></g>
<g><path style="opacity:1" fill="#e58139" d="M 383.5,295.5 C 384.873,295.343 386.207,295.51 387.5,296C 390.858,298.564 394.525,300.564 398.5,302C 399.38,303.356 399.714,304.856 399.5,306.5C 395.58,306.043 393.08,307.709 392,311.5C 388.943,313.739 386.11,316.072 383.5,318.5C 383.34,316.801 383.506,315.134 384,313.5C 390.041,312.958 393.208,309.625 393.5,303.5C 390.438,300.433 387.105,297.766 383.5,295.5 Z"/></g>
<g><path style="opacity:1" fill="#f9e1c5" d="M 231.5,295.5 C 232.117,295.611 232.617,295.944 233,296.5C 233.736,299.592 233.569,302.592 232.5,305.5C 229.578,306.649 226.578,307.649 223.5,308.5C 222.438,306.978 221.771,305.312 221.5,303.5C 230.074,308.146 233.407,305.48 231.5,295.5 Z"/></g>
<g><path style="opacity:1" fill="#cb965f" d="M 313.5,295.5 C 315.221,299.943 317.221,304.276 319.5,308.5C 319.5,309.833 319.5,311.167 319.5,312.5C 315.945,307.508 313.945,301.841 313.5,295.5 Z"/></g>
<g><path style="opacity:1" fill="#f0cfab" d="M 402.5,302.5 C 403.097,302.735 403.43,303.235 403.5,304C 403.022,305.303 402.355,306.469 401.5,307.5C 400.833,307.5 400.167,307.5 399.5,307.5C 399.5,307.167 399.5,306.833 399.5,306.5C 401.262,305.738 402.262,304.404 402.5,302.5 Z"/></g>
<g><path style="opacity:1" fill="#f08030" d="M 378.5,320.5 C 378.5,321.167 378.167,321.5 377.5,321.5C 374.904,322.265 372.237,322.599 369.5,322.5C 369.719,321.325 369.386,320.325 368.5,319.5C 367.77,321.341 367.103,323.175 366.5,325C 359.833,325.667 353.167,325.667 346.5,325C 342.518,323.455 338.518,321.955 334.5,320.5C 333.818,321.243 333.151,321.909 332.5,322.5C 330.833,322.5 329.167,322.5 327.5,322.5C 327.5,321.5 327.5,320.5 327.5,319.5C 329.5,319.5 331.5,319.5 333.5,319.5C 333.849,316.955 333.016,314.955 331,313.5C 330.502,310.183 330.335,306.85 330.5,303.5C 330.833,303.5 331.167,303.5 331.5,303.5C 332.736,301.389 334.236,299.389 336,297.5C 336.498,294.518 336.665,291.518 336.5,288.5C 337.5,288.5 338.5,288.5 339.5,288.5C 339.263,287.209 339.596,286.209 340.5,285.5C 341.105,287.026 342.271,288.026 344,288.5C 344.483,289.448 344.649,290.448 344.5,291.5C 345.675,291.719 346.675,291.386 347.5,290.5C 350.373,284.751 354.206,279.751 359,275.5C 359.667,276.5 359.667,277.5 359,278.5C 357.357,280.977 355.524,283.31 353.5,285.5C 354.376,286.251 355.376,286.751 356.5,287C 354.744,287.202 353.078,287.702 351.5,288.5C 347.467,294.266 343.3,299.933 339,305.5C 337.22,306.594 335.386,307.594 333.5,308.5C 332.253,310.042 332.253,311.542 333.5,313C 335.818,313.342 337.985,312.842 340,311.5C 345.881,313.763 350.214,312.096 353,306.5C 356.818,306.784 361.151,307.45 366,308.5C 370.969,307.174 375.969,305.84 381,304.5C 381.833,304.833 382.667,305.167 383.5,305.5C 382.311,306.429 380.978,306.762 379.5,306.5C 379.5,307.5 379.5,308.5 379.5,309.5C 374.167,309.833 374.167,310.167 379.5,310.5C 379.658,313.902 379.324,317.236 378.5,320.5 Z"/></g>
<g><path style="opacity:1" fill="#fdf6e8" d="M 244.5,297.5 C 243.058,298.82 242.392,300.486 242.5,302.5C 243.655,306.332 245.988,309.332 249.5,311.5C 249.557,312.609 249.89,313.609 250.5,314.5C 247.856,312.414 244.856,310.748 241.5,309.5C 239.052,306.275 238.886,302.942 241,299.5C 241.816,298.177 242.983,297.511 244.5,297.5 Z"/></g>
<g><path style="opacity:1" fill="#fef7dc" d="M 321.5,315.5 C 321.573,313.973 320.906,312.973 319.5,312.5C 319.5,311.167 319.5,309.833 319.5,308.5C 320.935,307.904 322.602,307.904 324.5,308.5C 324.66,310.199 324.494,311.866 324,313.5C 323.583,314.756 322.75,315.423 321.5,315.5 Z"/></g>
<g><path style="opacity:1" fill="#d6a676" d="M 329.5,303.5 C 329.5,304.833 329.5,306.167 329.5,307.5C 328.833,308.167 328.167,308.833 327.5,309.5C 327.259,307.102 327.926,305.102 329.5,303.5 Z"/></g>
<g><path style="opacity:1" fill="#fdfcf4" d="M 399.5,297.5 C 406.874,299.044 408.54,303.21 404.5,310C 405.01,311.826 405.844,311.993 407,310.5C 409.421,312.594 412.088,314.26 415,315.5C 419.583,313.875 424.25,312.542 429,311.5C 431.02,312.032 431.853,313.365 431.5,315.5C 427.606,315.11 423.94,315.777 420.5,317.5C 421.587,319.105 420.921,319.771 418.5,319.5C 415.63,319.398 413.297,318.232 411.5,316C 408.167,315.667 404.833,315.333 401.5,315C 403.422,313.54 404.089,311.873 403.5,310C 402.181,309.805 400.847,309.972 399.5,310.5C 400.167,309.5 400.833,308.5 401.5,307.5C 402.355,306.469 403.022,305.303 403.5,304C 403.43,303.235 403.097,302.735 402.5,302.5C 401.29,302.068 400.29,301.401 399.5,300.5C 399.5,299.5 399.5,298.5 399.5,297.5 Z"/></g>
<g><path style="opacity:1" fill="#dcaa7d" d="M 399.5,307.5 C 397.909,309.633 395.909,311.299 393.5,312.5C 394.638,309.914 396.638,308.247 399.5,307.5 Z"/></g>
<g><path style="opacity:1" fill="#fbfcf5" d="M 218.5,303.5 C 219.167,303.5 219.833,303.5 220.5,303.5C 220.833,303.5 221.167,303.5 221.5,303.5C 221.771,305.312 222.438,306.978 223.5,308.5C 226.578,307.649 229.578,306.649 232.5,305.5C 233.167,305.5 233.833,305.5 234.5,305.5C 233.375,307.129 232.041,308.629 230.5,310C 233.559,310.645 236.559,311.478 239.5,312.5C 240.246,313.736 240.579,315.07 240.5,316.5C 236.5,316.5 232.5,316.5 228.5,316.5C 228.48,314.857 229.147,313.524 230.5,312.5C 226.65,311.754 222.983,310.587 219.5,309C 218.594,307.301 218.261,305.467 218.5,303.5 Z"/></g>
<g><path style="opacity:1" fill="#e0ab7e" d="M 250.5,311.5 C 251.167,311.5 251.833,311.5 252.5,311.5C 253.5,312.833 254.5,314.167 255.5,315.5C 253.251,314.92 251.585,313.587 250.5,311.5 Z"/></g>
<g><path style="opacity:1" fill="#d6ad78" d="M 327.5,309.5 C 327.771,311.38 327.104,312.713 325.5,313.5C 325.66,311.847 326.326,310.514 327.5,309.5 Z"/></g>
<g><path style="opacity:1" fill="#fdefd5" d="M 249.5,311.5 C 249.833,311.5 250.167,311.5 250.5,311.5C 251.585,313.587 253.251,314.92 255.5,315.5C 256.802,317.822 258.802,319.155 261.5,319.5C 262.82,321.817 264.486,323.817 266.5,325.5C 264.076,324.97 261.743,324.136 259.5,323C 256.842,319.639 253.842,316.806 250.5,314.5C 249.89,313.609 249.557,312.609 249.5,311.5 Z"/></g>
<g><path style="opacity:1" fill="#cf8d56" d="M 252.5,311.5 C 253.167,311.5 253.833,311.5 254.5,311.5C 254.833,312.5 255.5,313.167 256.5,313.5C 258.883,314.885 260.55,316.885 261.5,319.5C 258.802,319.155 256.802,317.822 255.5,315.5C 254.5,314.167 253.5,312.833 252.5,311.5 Z"/></g>
<g><path style="opacity:1" fill="#d38a56" d="M 399.5,306.5 C 399.5,306.833 399.5,307.167 399.5,307.5C 396.638,308.247 394.638,309.914 393.5,312.5C 391.037,314.461 388.703,316.628 386.5,319C 385.552,319.483 384.552,319.649 383.5,319.5C 383.5,319.167 383.5,318.833 383.5,318.5C 386.11,316.072 388.943,313.739 392,311.5C 393.08,307.709 395.58,306.043 399.5,306.5 Z"/></g>
<g><path style="opacity:1" fill="#d39053" d="M 329.5,307.5 C 328.577,311.712 327.243,315.712 325.5,319.5C 321.062,320.575 319.062,318.908 319.5,314.5C 320.167,314.833 320.833,315.167 321.5,315.5C 321.987,316.473 322.487,317.473 323,318.5C 324.12,316.97 324.954,315.303 325.5,313.5C 327.104,312.713 327.771,311.38 327.5,309.5C 328.167,308.833 328.833,308.167 329.5,307.5 Z"/></g>
<g><path style="opacity:1" fill="#d5894d" d="M 383.5,319.5 C 383.19,321.144 382.19,322.144 380.5,322.5C 379.5,322.5 378.5,322.5 377.5,322.5C 377.5,322.167 377.5,321.833 377.5,321.5C 378.167,321.5 378.5,321.167 378.5,320.5C 380.042,319.699 381.708,319.366 383.5,319.5 Z"/></g>
<g><path style="opacity:1" fill="#e9833a" d="M 329.5,303.5 C 329.833,303.5 330.167,303.5 330.5,303.5C 330.335,306.85 330.502,310.183 331,313.5C 333.016,314.955 333.849,316.955 333.5,319.5C 331.5,319.5 329.5,319.5 327.5,319.5C 327.5,320.5 327.5,321.5 327.5,322.5C 319.171,321.992 311.171,322.992 303.5,325.5C 301.833,325.5 300.167,325.5 298.5,325.5C 296.833,325.5 295.167,325.5 293.5,325.5C 297.011,323.17 300.845,322.504 305,323.5C 307.118,322.524 309.285,321.69 311.5,321C 309.167,320.667 306.833,320.333 304.5,320C 305.833,319.333 305.833,318.667 304.5,318C 306.167,317.333 307.833,317.333 309.5,318C 311.65,319.411 313.984,320.245 316.5,320.5C 316.425,317.794 316.092,315.127 315.5,312.5C 316.833,313.167 318.167,313.833 319.5,314.5C 319.062,318.908 321.062,320.575 325.5,319.5C 327.243,315.712 328.577,311.712 329.5,307.5C 329.5,306.167 329.5,304.833 329.5,303.5 Z"/></g>
<g><path style="opacity:1" fill="#dcb68b" d="M 319.5,312.5 C 320.906,312.973 321.573,313.973 321.5,315.5C 320.833,315.167 320.167,314.833 319.5,314.5C 319.5,313.833 319.5,313.167 319.5,312.5 Z"/></g>
<g><path style="opacity:1" fill="#fbe7cd" d="M 399.5,307.5 C 400.167,307.5 400.833,307.5 401.5,307.5C 400.833,308.5 400.167,309.5 399.5,310.5C 393.243,314.47 387.576,319.136 382.5,324.5C 380.784,324.629 379.117,324.962 377.5,325.5C 378.306,324.272 379.306,323.272 380.5,322.5C 382.19,322.144 383.19,321.144 383.5,319.5C 384.552,319.649 385.552,319.483 386.5,319C 388.703,316.628 391.037,314.461 393.5,312.5C 395.909,311.299 397.909,309.633 399.5,307.5 Z"/></g>
<g><path style="opacity:1" fill="#ea7f3e" d="M 377.5,321.5 C 377.5,321.833 377.5,322.167 377.5,322.5C 374.838,323.877 372.004,324.877 369,325.5C 367.97,325.836 367.47,326.503 367.5,327.5C 355.413,327.489 343.413,326.489 331.5,324.5C 331.833,323.833 332.167,323.167 332.5,322.5C 333.151,321.909 333.818,321.243 334.5,320.5C 338.518,321.955 342.518,323.455 346.5,325C 353.167,325.667 359.833,325.667 366.5,325C 367.103,323.175 367.77,321.341 368.5,319.5C 369.386,320.325 369.719,321.325 369.5,322.5C 372.237,322.599 374.904,322.265 377.5,321.5 Z"/></g>
<g><path style="opacity:1" fill="#d98541" d="M 327.5,322.5 C 329.167,322.5 330.833,322.5 332.5,322.5C 332.167,323.167 331.833,323.833 331.5,324.5C 323.472,323.501 315.472,323.834 307.5,325.5C 306.167,325.5 304.833,325.5 303.5,325.5C 311.171,322.992 319.171,321.992 327.5,322.5 Z"/></g>
<g><path style="opacity:1" fill="#d49b70" d="M 261.5,319.5 C 265.144,321.657 268.81,323.824 272.5,326C 274.74,326.977 277.073,327.477 279.5,327.5C 283.634,328.485 287.968,328.818 292.5,328.5C 287.684,329.65 282.684,329.816 277.5,329C 273.785,327.705 270.118,326.538 266.5,325.5C 264.486,323.817 262.82,321.817 261.5,319.5 Z"/></g>
<g><path style="opacity:1" fill="#d89769" d="M 331.5,324.5 C 343.413,326.489 355.413,327.489 367.5,327.5C 367.5,327.833 367.5,328.167 367.5,328.5C 367.5,328.833 367.5,329.167 367.5,329.5C 352.421,329.073 337.421,327.74 322.5,325.5C 317.501,325.917 312.501,326.25 307.5,326.5C 307.5,326.167 307.5,325.833 307.5,325.5C 315.472,323.834 323.472,323.501 331.5,324.5 Z"/></g>
<g><path style="opacity:1" fill="#d58e59" d="M 377.5,322.5 C 378.5,322.5 379.5,322.5 380.5,322.5C 379.306,323.272 378.306,324.272 377.5,325.5C 376.391,325.557 375.391,325.89 374.5,326.5C 372.236,327.219 369.903,327.552 367.5,327.5C 367.47,326.503 367.97,325.836 369,325.5C 372.004,324.877 374.838,323.877 377.5,322.5 Z"/></g>
<g><path style="opacity:1" fill="#e38343" d="M 256.5,313.5 C 261.085,314.242 264.418,316.742 266.5,321C 271.931,321.477 276.931,323.144 281.5,326C 285.554,326.694 289.554,326.527 293.5,325.5C 295.167,325.5 296.833,325.5 298.5,325.5C 292.426,327.248 286.093,327.915 279.5,327.5C 277.073,327.477 274.74,326.977 272.5,326C 268.81,323.824 265.144,321.657 261.5,319.5C 260.55,316.885 258.883,314.885 256.5,313.5 Z"/></g>
<g><path style="opacity:1" fill="#d68756" d="M 298.5,325.5 C 300.167,325.5 301.833,325.5 303.5,325.5C 304.833,325.5 306.167,325.5 307.5,325.5C 307.5,325.833 307.5,326.167 307.5,326.5C 305.901,326.232 304.568,326.566 303.5,327.5C 299.821,327.724 296.154,328.058 292.5,328.5C 287.968,328.818 283.634,328.485 279.5,327.5C 286.093,327.915 292.426,327.248 298.5,325.5 Z"/></g>
<g><path style="opacity:1" fill="#f8d7b3" d="M 374.5,326.5 C 374.389,327.117 374.056,327.617 373.5,328C 371.527,328.495 369.527,328.662 367.5,328.5C 367.5,328.167 367.5,327.833 367.5,327.5C 369.903,327.552 372.236,327.219 374.5,326.5 Z"/></g>
<g><path style="opacity:1" fill="#fbfbf2" d="M 344.5,329.5 C 340.833,330.833 337.167,332.167 333.5,333.5C 328.584,335.593 326.584,333.926 327.5,328.5C 333.196,328.447 338.862,328.78 344.5,329.5 Z"/></g>
<g><path style="opacity:1" fill="#fce4c8" d="M 266.5,325.5 C 270.118,326.538 273.785,327.705 277.5,329C 282.684,329.816 287.684,329.65 292.5,328.5C 296.154,328.058 299.821,327.724 303.5,327.5C 301.695,329.197 299.361,330.03 296.5,330C 290.843,330.499 285.176,330.666 279.5,330.5C 274.898,330.227 270.565,329.227 266.5,327.5C 266.5,326.833 266.5,326.167 266.5,325.5 Z"/></g>
<g><path style="opacity:1" fill="#fefbe6" d="M 382.5,324.5 C 378.605,326.679 378.605,328.846 382.5,331C 378.008,331.225 373.675,331.058 369.5,330.5C 365.555,331.268 361.555,331.768 357.5,332C 356.244,332.417 355.577,333.25 355.5,334.5C 353.5,334.5 351.5,334.5 349.5,334.5C 344.36,333.512 339.026,333.179 333.5,333.5C 337.167,332.167 340.833,330.833 344.5,329.5C 352.315,330.709 359.982,330.709 367.5,329.5C 367.5,329.167 367.5,328.833 367.5,328.5C 369.527,328.662 371.527,328.495 373.5,328C 374.056,327.617 374.389,327.117 374.5,326.5C 375.391,325.89 376.391,325.557 377.5,325.5C 379.117,324.962 380.784,324.629 382.5,324.5 Z"/></g>
<g><path style="opacity:1" fill="#fdfcf0" d="M 266.5,327.5 C 270.565,329.227 274.898,330.227 279.5,330.5C 283.054,331.249 286.72,332.082 290.5,333C 290.833,333.333 291.167,333.667 291.5,334C 290.099,334.41 288.766,334.91 287.5,335.5C 287.53,334.503 287.03,333.836 286,333.5C 284.374,334.018 282.707,334.352 281,334.5C 276.415,332.312 271.581,331.312 266.5,331.5C 266.5,330.167 266.5,328.833 266.5,327.5 Z"/></g>
<g><path style="opacity:1" fill="#fdf6e1" d="M 303.5,327.5 C 309.026,327.179 314.36,327.512 319.5,328.5C 314.632,328.24 309.965,329.074 305.5,331C 310.156,331.665 314.823,332.165 319.5,332.5C 315.668,333.542 311.668,333.542 307.5,332.5C 303.95,332.754 300.617,333.421 297.5,334.5C 293.673,334.752 290.34,336.085 287.5,338.5C 286.5,339.833 285.5,341.167 284.5,342.5C 282.983,342.511 281.816,343.177 281,344.5C 278.775,348.677 277.275,353.01 276.5,357.5C 275.662,357.842 275.328,358.508 275.5,359.5C 274.193,361.223 274.193,363.057 275.5,365C 282.158,365.5 288.825,365.666 295.5,365.5C 296.833,365.5 298.167,365.5 299.5,365.5C 299.389,366.117 299.056,366.617 298.5,367C 289.492,367.441 280.492,367.274 271.5,366.5C 271.5,364.167 271.5,361.833 271.5,359.5C 273.049,355.014 274.882,350.68 277,346.5C 278.812,343.72 280.979,341.22 283.5,339C 284.448,338.517 285.448,338.351 286.5,338.5C 286.263,337.209 286.596,336.209 287.5,335.5C 288.766,334.91 290.099,334.41 291.5,334C 291.167,333.667 290.833,333.333 290.5,333C 286.72,332.082 283.054,331.249 279.5,330.5C 285.176,330.666 290.843,330.499 296.5,330C 299.361,330.03 301.695,329.197 303.5,327.5 Z"/></g>
<g><path style="opacity:1" fill="#fdfcf7" d="M 319.5,328.5 C 319.5,329.833 319.5,331.167 319.5,332.5C 314.823,332.165 310.156,331.665 305.5,331C 309.965,329.074 314.632,328.24 319.5,328.5 Z"/></g>
<g><path style="opacity:1" fill="#fde8ca" d="M 367.5,329.5 C 359.982,330.709 352.315,330.709 344.5,329.5C 338.862,328.78 333.196,328.447 327.5,328.5C 326.584,333.926 328.584,335.593 333.5,333.5C 339.026,333.179 344.36,333.512 349.5,334.5C 342.151,334.549 334.817,334.882 327.5,335.5C 326.833,334.833 326.167,334.167 325.5,333.5C 325.5,332.167 325.5,330.833 325.5,329.5C 323.833,329.5 322.167,329.5 320.5,329.5C 320.5,330.5 320.5,331.5 320.5,332.5C 320.5,333.167 320.5,333.833 320.5,334.5C 319.833,334.833 319.167,335.167 318.5,335.5C 315.167,335.5 311.833,335.5 308.5,335.5C 305.038,334.518 301.371,334.185 297.5,334.5C 300.617,333.421 303.95,332.754 307.5,332.5C 311.668,333.542 315.668,333.542 319.5,332.5C 319.5,331.167 319.5,329.833 319.5,328.5C 314.36,327.512 309.026,327.179 303.5,327.5C 304.568,326.566 305.901,326.232 307.5,326.5C 312.501,326.25 317.501,325.917 322.5,325.5C 337.421,327.74 352.421,329.073 367.5,329.5 Z"/></g>
<g><path style="opacity:1" fill="#c4a27b" d="M 325.5,333.5 C 323.958,332.699 322.292,332.366 320.5,332.5C 320.5,331.5 320.5,330.5 320.5,329.5C 322.167,329.5 323.833,329.5 325.5,329.5C 325.5,330.833 325.5,332.167 325.5,333.5 Z"/></g>
<g><path style="opacity:1" fill="#d69b72" d="M 297.5,334.5 C 301.371,334.185 305.038,334.518 308.5,335.5C 303.968,335.182 299.634,335.515 295.5,336.5C 293.685,337.63 291.685,338.296 289.5,338.5C 288.833,338.5 288.167,338.5 287.5,338.5C 290.34,336.085 293.673,334.752 297.5,334.5 Z"/></g>
<g><path style="opacity:1" fill="#d08d51" d="M 320.5,332.5 C 322.292,332.366 323.958,332.699 325.5,333.5C 325.179,339.026 325.512,344.36 326.5,349.5C 327.381,353.454 328.048,357.454 328.5,361.5C 326.057,355.736 324.223,349.736 323,343.5C 321.804,350.228 320.304,356.895 318.5,363.5C 317.818,364.243 317.151,364.909 316.5,365.5C 316.5,364.833 316.5,364.167 316.5,363.5C 316.5,362.833 316.5,362.167 316.5,361.5C 317.222,361.082 317.722,360.416 318,359.5C 318.735,355.187 319.235,350.853 319.5,346.5C 320.483,342.702 320.817,338.702 320.5,334.5C 320.5,333.833 320.5,333.167 320.5,332.5 Z"/></g>
<g><path style="opacity:1" fill="#d19057" d="M 349.5,334.5 C 354.578,336.215 358.911,339.215 362.5,343.5C 362.5,344.167 362.5,344.833 362.5,345.5C 359.804,343.491 357.137,341.491 354.5,339.5C 354.196,338.85 353.863,338.183 353.5,337.5C 350.5,337.167 347.5,336.833 344.5,336.5C 341.087,336.517 338.087,337.184 335.5,338.5C 334.833,338.5 334.167,338.5 333.5,338.5C 332.817,336.824 331.483,336.157 329.5,336.5C 329.5,339.5 329.5,342.5 329.5,345.5C 328.778,345.082 328.278,344.416 328,343.5C 327.503,340.854 327.336,338.187 327.5,335.5C 334.817,334.882 342.151,334.549 349.5,334.5 Z"/></g>
<g><path style="opacity:1" fill="#e18338" d="M 354.5,339.5 C 348.211,338.628 341.878,338.295 335.5,338.5C 338.087,337.184 341.087,336.517 344.5,336.5C 347.5,336.833 350.5,337.167 353.5,337.5C 353.863,338.183 354.196,338.85 354.5,339.5 Z"/></g>
<g><path style="opacity:0.486" fill="#faf9f5" d="M 469.5,324.5 C 466.819,350.845 456.819,373.845 439.5,393.5C 439.396,389.104 441.229,385.77 445,383.5C 446.167,381.167 447.333,378.833 448.5,376.5C 447.079,373.572 448.079,372.238 451.5,372.5C 452.906,365.152 454.739,357.819 457,350.5C 458.044,351.623 458.71,352.956 459,354.5C 462.797,343.767 465.797,332.767 468,321.5C 468.232,322.737 468.732,323.737 469.5,324.5 Z"/></g>
<g><path style="opacity:1" fill="#e28335" d="M 333.5,338.5 C 332.74,339.893 332.074,341.393 331.5,343C 331.773,344.533 332.106,346.033 332.5,347.5C 331.222,347.218 330.222,346.551 329.5,345.5C 329.5,342.5 329.5,339.5 329.5,336.5C 331.483,336.157 332.817,336.824 333.5,338.5 Z"/></g>
<g><path style="opacity:1" fill="#d68d54" d="M 295.5,336.5 C 299.634,335.515 303.968,335.182 308.5,335.5C 311.833,335.5 315.167,335.5 318.5,335.5C 319.427,339.13 318.76,342.463 316.5,345.5C 318.571,341.546 317.571,338.713 313.5,337C 307.509,336.501 301.509,336.334 295.5,336.5 Z"/></g>
<g><path style="opacity:1" fill="#f07b2e" d="M 362.5,347.5 C 364.164,349.679 363.83,351.512 361.5,353C 363.025,354.009 364.692,354.509 366.5,354.5C 366.5,355.5 366.5,356.5 366.5,357.5C 364.833,357.5 363.167,357.5 361.5,357.5C 358.813,357.664 356.146,357.497 353.5,357C 352.692,356.692 352.025,356.192 351.5,355.5C 352.714,353.931 354.381,353.098 356.5,353C 355.128,352.598 353.795,352.098 352.5,351.5C 351.779,349.314 351.113,347.147 350.5,345C 345.9,345.011 341.567,344.011 337.5,342C 338.416,341.626 339.25,341.126 340,340.5C 344.481,340.537 348.981,340.704 353.5,341C 354.288,344.076 354.788,347.242 355,350.5C 356.825,351.571 357.992,350.904 358.5,348.5C 359.689,347.571 361.022,347.238 362.5,347.5 Z"/></g>
<g><path style="opacity:1" fill="#cd8a53" d="M 287.5,338.5 C 288.167,338.5 288.833,338.5 289.5,338.5C 287.058,341.729 284.392,344.729 281.5,347.5C 282.075,345.589 283.075,343.922 284.5,342.5C 285.5,341.167 286.5,339.833 287.5,338.5 Z"/></g>
<g><path style="opacity:1" fill="#fdce95" d="M 320.5,334.5 C 320.817,338.702 320.483,342.702 319.5,346.5C 318.391,346.557 317.391,346.89 316.5,347.5C 316.5,346.833 316.5,346.167 316.5,345.5C 318.76,342.463 319.427,339.13 318.5,335.5C 319.167,335.167 319.833,334.833 320.5,334.5 Z"/></g>
<g><path style="opacity:1" fill="#facea0" d="M 325.5,333.5 C 326.167,334.167 326.833,334.833 327.5,335.5C 327.336,338.187 327.503,340.854 328,343.5C 328.278,344.416 328.778,345.082 329.5,345.5C 329.5,346.167 329.5,346.833 329.5,347.5C 327.402,346.086 326.402,346.752 326.5,349.5C 325.512,344.36 325.179,339.026 325.5,333.5 Z"/></g>
<g><path style="opacity:1" fill="#de823d" d="M 295.5,336.5 C 301.509,336.334 307.509,336.501 313.5,337C 317.571,338.713 318.571,341.546 316.5,345.5C 314.972,346.802 313.972,348.469 313.5,350.5C 313.552,346.802 313.886,343.135 314.5,339.5C 310.889,339.956 307.556,339.289 304.5,337.5C 300.165,338.251 295.832,339.084 291.5,340C 285.801,343.682 282.635,348.848 282,355.5C 280.67,356.582 279.17,357.249 277.5,357.5C 278.282,353.937 279.616,350.603 281.5,347.5C 284.392,344.729 287.058,341.729 289.5,338.5C 291.685,338.296 293.685,337.63 295.5,336.5 Z"/></g>
<g><path style="opacity:1" fill="#d19154" d="M 316.5,345.5 C 316.5,346.167 316.5,346.833 316.5,347.5C 315.994,350.671 314.328,353.004 311.5,354.5C 311.733,352.938 312.4,351.605 313.5,350.5C 313.972,348.469 314.972,346.802 316.5,345.5 Z"/></g>
<g><path style="opacity:1" fill="#ed7f2f" d="M 333.5,338.5 C 334.167,338.5 334.833,338.5 335.5,338.5C 341.878,338.295 348.211,338.628 354.5,339.5C 357.137,341.491 359.804,343.491 362.5,345.5C 362.5,346.167 362.5,346.833 362.5,347.5C 361.022,347.238 359.689,347.571 358.5,348.5C 357.992,350.904 356.825,351.571 355,350.5C 354.788,347.242 354.288,344.076 353.5,341C 348.981,340.704 344.481,340.537 340,340.5C 339.25,341.126 338.416,341.626 337.5,342C 341.567,344.011 345.9,345.011 350.5,345C 351.113,347.147 351.779,349.314 352.5,351.5C 353.795,352.098 355.128,352.598 356.5,353C 354.381,353.098 352.714,353.931 351.5,355.5C 352.025,356.192 352.692,356.692 353.5,357C 356.146,357.497 358.813,357.664 361.5,357.5C 362.058,358.79 363.058,359.623 364.5,360C 364.167,360.333 363.833,360.667 363.5,361C 359.514,361.499 355.514,361.666 351.5,361.5C 347.177,361.453 343.177,360.453 339.5,358.5C 336.63,355.307 334.296,351.641 332.5,347.5C 332.106,346.033 331.773,344.533 331.5,343C 332.074,341.393 332.74,339.893 333.5,338.5 Z"/></g>
<g><path style="opacity:1" fill="#fcf0d9" d="M 349.5,334.5 C 351.5,334.5 353.5,334.5 355.5,334.5C 357.478,337.012 360.145,338.512 363.5,339C 365.004,340.491 365.837,342.324 366,344.5C 370.747,348.475 372.913,353.641 372.5,360C 372.492,361.707 372.158,363.207 371.5,364.5C 370.929,356.369 367.929,349.369 362.5,343.5C 358.911,339.215 354.578,336.215 349.5,334.5 Z"/></g>
<g><path style="opacity:1" fill="#fbe4ba" d="M 319.5,346.5 C 319.235,350.853 318.735,355.187 318,359.5C 317.722,360.416 317.222,361.082 316.5,361.5C 317.321,358.446 317.321,355.446 316.5,352.5C 314.814,353.857 313.148,355.19 311.5,356.5C 311.5,355.833 311.5,355.167 311.5,354.5C 314.328,353.004 315.994,350.671 316.5,347.5C 317.391,346.89 318.391,346.557 319.5,346.5 Z"/></g>
<g><path style="opacity:1" fill="#d8a070" d="M 284.5,342.5 C 283.075,343.922 282.075,345.589 281.5,347.5C 279.616,350.603 278.282,353.937 277.5,357.5C 277.167,357.5 276.833,357.5 276.5,357.5C 277.275,353.01 278.775,348.677 281,344.5C 281.816,343.177 282.983,342.511 284.5,342.5 Z"/></g>
<g><path style="opacity:1" fill="#ee7e30" d="M 313.5,350.5 C 310.645,352.997 307.312,354.664 303.5,355.5C 302.754,356.736 302.421,358.07 302.5,359.5C 294.632,361.219 286.632,361.886 278.5,361.5C 277.566,360.432 277.232,359.099 277.5,357.5C 279.17,357.249 280.67,356.582 282,355.5C 282.635,348.848 285.801,343.682 291.5,340C 295.832,339.084 300.165,338.251 304.5,337.5C 307.556,339.289 310.889,339.956 314.5,339.5C 313.886,343.135 313.552,346.802 313.5,350.5 Z"/></g>
<g><path style="opacity:1" fill="#d4884c" d="M 329.5,345.5 C 330.222,346.551 331.222,347.218 332.5,347.5C 334.296,351.641 336.63,355.307 339.5,358.5C 338.167,358.167 336.833,357.833 335.5,357.5C 333.511,354.194 331.511,350.861 329.5,347.5C 329.5,346.833 329.5,346.167 329.5,345.5 Z"/></g>
<g><path style="opacity:1" fill="#fbe6c5" d="M 329.5,347.5 C 331.511,350.861 333.511,354.194 335.5,357.5C 334.194,357.121 332.861,356.788 331.5,356.5C 330.52,359.086 330.187,361.753 330.5,364.5C 329.833,363.5 329.167,362.5 328.5,361.5C 328.048,357.454 327.381,353.454 326.5,349.5C 326.402,346.752 327.402,346.086 329.5,347.5 Z"/></g>
<g><path style="opacity:1" fill="#e2823c" d="M 313.5,350.5 C 312.4,351.605 311.733,352.938 311.5,354.5C 309.303,355.845 306.97,357.011 304.5,358C 303.663,359.011 303.33,360.178 303.5,361.5C 295.018,362.72 286.685,362.72 278.5,361.5C 286.632,361.886 294.632,361.219 302.5,359.5C 302.421,358.07 302.754,356.736 303.5,355.5C 307.312,354.664 310.645,352.997 313.5,350.5 Z"/></g>
<g><path style="opacity:1" fill="#fef7e5" d="M 335.5,357.5 C 336.833,358.833 338.167,360.167 339.5,361.5C 337.071,361.415 335.071,360.415 333.5,358.5C 332.52,361.086 332.187,363.753 332.5,366.5C 331.833,365.833 331.167,365.167 330.5,364.5C 330.187,361.753 330.52,359.086 331.5,356.5C 332.861,356.788 334.194,357.121 335.5,357.5 Z"/></g>
<g><path style="opacity:1" fill="#dd8440" d="M 339.5,358.5 C 343.177,360.453 347.177,361.453 351.5,361.5C 351.5,361.833 351.5,362.167 351.5,362.5C 349.5,362.5 347.5,362.5 345.5,362.5C 342.853,362.071 340.853,360.738 339.5,358.5 Z"/></g>
<g><path style="opacity:1" fill="#dfab82" d="M 335.5,357.5 C 336.833,357.833 338.167,358.167 339.5,358.5C 340.853,360.738 342.853,362.071 345.5,362.5C 345.5,362.833 345.5,363.167 345.5,363.5C 343.421,363.029 341.421,362.363 339.5,361.5C 338.167,360.167 336.833,358.833 335.5,357.5 Z"/></g>
<g><path style="opacity:1" fill="#d19465" d="M 362.5,343.5 C 367.929,349.369 370.929,356.369 371.5,364.5C 367.368,365.06 363.201,365.393 359,365.5C 354.228,365.692 349.728,365.025 345.5,363.5C 345.5,363.167 345.5,362.833 345.5,362.5C 347.5,362.5 349.5,362.5 351.5,362.5C 356.901,363.825 362.401,363.825 368,362.5C 368.961,356.432 367.128,351.432 362.5,347.5C 362.5,346.833 362.5,346.167 362.5,345.5C 362.5,344.833 362.5,344.167 362.5,343.5 Z"/></g>
<g><path style="opacity:1" fill="#e67f3a" d="M 362.5,347.5 C 367.128,351.432 368.961,356.432 368,362.5C 362.401,363.825 356.901,363.825 351.5,362.5C 351.5,362.167 351.5,361.833 351.5,361.5C 355.514,361.666 359.514,361.499 363.5,361C 363.833,360.667 364.167,360.333 364.5,360C 363.058,359.623 362.058,358.79 361.5,357.5C 363.167,357.5 364.833,357.5 366.5,357.5C 366.5,356.5 366.5,355.5 366.5,354.5C 364.692,354.509 363.025,354.009 361.5,353C 363.83,351.512 364.164,349.679 362.5,347.5 Z"/></g>
<g><path style="opacity:1" fill="#d38751" d="M 311.5,354.5 C 311.5,355.167 311.5,355.833 311.5,356.5C 307.747,360.569 303.08,362.903 297.5,363.5C 290.492,363.666 283.492,363.5 276.5,363C 275.663,361.989 275.33,360.822 275.5,359.5C 275.328,358.508 275.662,357.842 276.5,357.5C 276.833,357.5 277.167,357.5 277.5,357.5C 277.232,359.099 277.566,360.432 278.5,361.5C 286.685,362.72 295.018,362.72 303.5,361.5C 303.33,360.178 303.663,359.011 304.5,358C 306.97,357.011 309.303,355.845 311.5,354.5 Z"/></g>
<g><path style="opacity:1" fill="#fce6ca" d="M 311.5,356.5 C 311.5,357.167 311.5,357.833 311.5,358.5C 309.824,359.183 309.157,360.517 309.5,362.5C 307.214,362.595 305.214,363.262 303.5,364.5C 301.901,364.232 300.568,364.566 299.5,365.5C 298.167,365.5 296.833,365.5 295.5,365.5C 296.167,364.833 296.833,364.167 297.5,363.5C 303.08,362.903 307.747,360.569 311.5,356.5 Z"/></g>
<g><path style="opacity:1" fill="#ce966c" d="M 275.5,359.5 C 275.33,360.822 275.663,361.989 276.5,363C 283.492,363.5 290.492,363.666 297.5,363.5C 296.833,364.167 296.167,364.833 295.5,365.5C 288.825,365.666 282.158,365.5 275.5,365C 274.193,363.057 274.193,361.223 275.5,359.5 Z"/></g>
<g><path style="opacity:1" fill="#fef3e0" d="M 339.5,361.5 C 341.421,362.363 343.421,363.029 345.5,363.5C 349.728,365.025 354.228,365.692 359,365.5C 363.201,365.393 367.368,365.06 371.5,364.5C 371.586,365.496 371.252,366.329 370.5,367C 360.073,367.931 349.74,367.431 339.5,365.5C 339.5,364.167 339.5,362.833 339.5,361.5 Z"/></g>
<g><path style="opacity:1" fill="#fdf6df" d="M 316.5,361.5 C 316.5,362.167 316.5,362.833 316.5,363.5C 315.25,363.577 314.417,364.244 314,365.5C 313.192,369.027 313.359,372.36 314.5,375.5C 316.351,379.039 318.018,382.706 319.5,386.5C 315.994,385.336 313.994,383.003 313.5,379.5C 311.935,372.329 312.268,365.329 314.5,358.5C 313.5,358.5 312.5,358.5 311.5,358.5C 311.5,357.833 311.5,357.167 311.5,356.5C 313.148,355.19 314.814,353.857 316.5,352.5C 317.321,355.446 317.321,358.446 316.5,361.5 Z"/></g>
<g><path style="opacity:1" fill="#fefdf3" d="M 271.5,359.5 C 271.5,361.833 271.5,364.167 271.5,366.5C 280.492,367.274 289.492,367.441 298.5,367C 299.056,366.617 299.389,366.117 299.5,365.5C 300.568,364.566 301.901,364.232 303.5,364.5C 302.426,365.885 301.093,367.051 299.5,368C 290.52,369.132 281.52,369.466 272.5,369C 270.307,365.962 269.973,362.796 271.5,359.5 Z"/></g>
<g><path style="opacity:1" fill="#fee4c5" d="M 316.5,363.5 C 316.5,364.167 316.5,364.833 316.5,365.5C 315.778,365.918 315.278,366.584 315,367.5C 314.503,370.146 314.336,372.813 314.5,375.5C 313.359,372.36 313.192,369.027 314,365.5C 314.417,364.244 315.25,363.577 316.5,363.5 Z"/></g>
<g><path style="opacity:1" fill="#e38239" d="M 328.5,361.5 C 329.229,366.13 329.563,370.797 329.5,375.5C 327.777,377.78 327.111,380.447 327.5,383.5C 325.906,383.92 324.406,384.586 323,385.5C 321.395,384.899 320.062,383.899 319,382.5C 316.984,377.012 316.151,371.345 316.5,365.5C 317.151,364.909 317.818,364.243 318.5,363.5C 320.304,356.895 321.804,350.228 323,343.5C 324.223,349.736 326.057,355.736 328.5,361.5 Z"/></g>
<g><path style="opacity:1" fill="#ee7f2f" d="M 322.5,355.5 C 323.75,355.577 324.583,356.244 325,357.5C 325.371,361.764 326.204,365.931 327.5,370C 326.785,374.172 326.119,378.338 325.5,382.5C 324.5,382.5 323.5,382.5 322.5,382.5C 322.394,379.892 321.228,377.892 319,376.5C 318.333,372.833 318.333,369.167 319,365.5C 319.718,366.451 320.551,366.617 321.5,366C 319.988,362.276 320.321,358.776 322.5,355.5 Z"/></g>
<g><path style="opacity:1" fill="#d38b4e" d="M 328.5,361.5 C 329.167,362.5 329.833,363.5 330.5,364.5C 330.5,365.5 330.5,366.5 330.5,367.5C 330.806,370.385 330.473,373.052 329.5,375.5C 329.563,370.797 329.229,366.13 328.5,361.5 Z"/></g>
<g><path style="opacity:1" fill="#fde2c0" d="M 330.5,364.5 C 331.167,365.167 331.833,365.833 332.5,366.5C 332.5,366.833 332.5,367.167 332.5,367.5C 332.806,370.385 332.473,373.052 331.5,375.5C 331.806,372.615 331.473,369.948 330.5,367.5C 330.5,366.5 330.5,365.5 330.5,364.5 Z"/></g>
<g><path style="opacity:1" fill="#fefaed" d="M 332.5,367.5 C 333.117,367.611 333.617,367.944 334,368.5C 335.421,375.053 333.921,380.719 329.5,385.5C 330.929,382.692 331.595,379.692 331.5,376.5C 331.5,376.167 331.5,375.833 331.5,375.5C 332.473,373.052 332.806,370.385 332.5,367.5 Z"/></g>
<g><path style="opacity:1" fill="#cc925f" d="M 330.5,367.5 C 331.473,369.948 331.806,372.615 331.5,375.5C 331.5,375.833 331.5,376.167 331.5,376.5C 330.433,378.964 329.1,381.297 327.5,383.5C 327.111,380.447 327.777,377.78 329.5,375.5C 330.473,373.052 330.806,370.385 330.5,367.5 Z"/></g>
<g><path style="opacity:1" fill="#fae2c7" d="M 331.5,376.5 C 331.595,379.692 330.929,382.692 329.5,385.5C 327.716,386.574 326.549,388.24 326,390.5C 324.479,390.481 322.979,390.148 321.5,389.5C 324.478,388.522 326.478,386.522 327.5,383.5C 329.1,381.297 330.433,378.964 331.5,376.5 Z"/></g>
<g><path style="opacity:1" fill="#ce8f5e" d="M 316.5,365.5 C 316.151,371.345 316.984,377.012 319,382.5C 320.062,383.899 321.395,384.899 323,385.5C 324.406,384.586 325.906,383.92 327.5,383.5C 326.478,386.522 324.478,388.522 321.5,389.5C 321.068,388.29 320.401,387.29 319.5,386.5C 318.018,382.706 316.351,379.039 314.5,375.5C 314.336,372.813 314.503,370.146 315,367.5C 315.278,366.584 315.778,365.918 316.5,365.5 Z"/></g>
<g><path style="opacity:1" fill="#fdfcf2" d="M 313.5,379.5 C 313.994,383.003 315.994,385.336 319.5,386.5C 320.401,387.29 321.068,388.29 321.5,389.5C 322.979,390.148 324.479,390.481 326,390.5C 326.549,388.24 327.716,386.574 329.5,385.5C 328.423,388.227 327.423,391.06 326.5,394C 327.233,395.766 327.567,397.599 327.5,399.5C 320.648,400.819 319.315,399.152 323.5,394.5C 321.481,392.202 318.981,390.536 316,389.5C 314.392,386.379 313.559,383.046 313.5,379.5 Z"/></g>
</svg>
